<svg xmlns="http://www.w3.org/2000/svg" width="134.456" height="153.198" viewBox="0 0 134.456 153.198"><defs><style>.a,.b{fill:#fff;}.b,.c{stroke:#fff;stroke-miterlimit:10;}.b{stroke-width:1.804px;}.c{fill:none;stroke-width:1.2px;}</style></defs><g transform="translate(0.902 0.902)"><g transform="translate(5.758 5.761)"><path class="a" d="M525.232,478l-55.866,32.253v64.508l55.866,32.254L581.1,574.759V510.252L525.232,478m0-5.43L585.8,507.537v69.937l-60.568,34.969-60.568-34.969V507.537Z" transform="translate(-464.664 -472.568)"/></g><circle class="b" cx="5.759" cy="5.759" r="5.759" transform="translate(60.568)"/><circle class="b" cx="5.759" cy="5.759" r="5.759" transform="translate(60.568 69.941)"/><circle class="b" cx="5.759" cy="5.759" r="5.759" transform="translate(0 34.971)"/><circle class="b" cx="5.759" cy="5.759" r="5.759" transform="translate(0 105.352)"/><circle class="b" cx="5.759" cy="5.759" r="5.759" transform="translate(60.568 139.877)"/><circle class="b" cx="5.759" cy="5.759" r="5.759" transform="translate(121.134 104.908)"/><circle class="b" cx="5.759" cy="5.759" r="5.759" transform="translate(121.134 34.971)"/><line class="c" x2="121.134" y2="69.937" transform="translate(5.759 40.729)"/><line class="c" x1="121.134" y2="69.937" transform="translate(5.759 40.729)"/><line class="c" y2="139.874" transform="translate(66.326 5.761)"/><line class="c" x1="121.134" transform="translate(5.759 40.729)"/><line class="c" x2="121.134" transform="translate(5.759 110.667)"/><line class="c" x2="60.568" y2="104.906" transform="translate(5.759 40.729)"/><line class="c" x1="60.568" y1="104.906" transform="translate(66.326 5.761)"/><line class="c" y1="104.906" x2="60.568" transform="translate(5.759 5.761)"/><line class="c" x1="60.568" y2="104.906" transform="translate(66.326 40.729)"/></g></svg>