<svg id="Layer_1" data-name="Layer 1" xmlns="http://www.w3.org/2000/svg" xmlns:xlink="http://www.w3.org/1999/xlink" viewBox="0 0 618.75 601.82"><defs><style>.cls-1,.cls-11,.cls-18,.cls-2,.cls-6,.cls-8{fill:none;}.cls-11,.cls-18,.cls-19,.cls-2,.cls-6,.cls-8,.cls-9{stroke:#3da8f5;}.cls-17,.cls-19,.cls-3,.cls-5{fill:#3da8f5;}.cls-17,.cls-4,.cls-5{isolation:isolate;}.cls-5{font-size:18px;font-family:Akkurat-Bold;font-weight:700;}.cls-6{stroke-width:1.5px;}.cls-7,.cls-9{fill:#fff;}.cls-8{stroke-width:1.84px;}.cls-10{clip-path:url(#clip-path);}.cls-11{stroke-miterlimit:10;stroke-width:3px;}.cls-12{clip-path:url(#clip-path-2);}.cls-13{clip-path:url(#clip-path-3);}.cls-14{clip-path:url(#clip-path-4);}.cls-15{clip-path:url(#clip-path-5);}.cls-16{clip-path:url(#clip-path-6);}.cls-17{font-size:13px;font-family:Akkurat;letter-spacing:-0.02em;}.cls-18,.cls-19{stroke-linejoin:round;stroke-width:1.2px;}</style><clipPath id="clip-path"><circle class="cls-1" cx="122.67" cy="496.22" r="28.24"/></clipPath><clipPath id="clip-path-2"><circle class="cls-1" cx="496.12" cy="496.22" r="28.24"/></clipPath><clipPath id="clip-path-3"><circle class="cls-1" cx="496.12" cy="64.94" r="28.24"/></clipPath><clipPath id="clip-path-4"><circle class="cls-1" cx="122.62" cy="64.94" r="28.24"/></clipPath><clipPath id="clip-path-5"><circle class="cls-1" cx="28.99" cy="276.24" r="28.24"/></clipPath><clipPath id="clip-path-6"><circle class="cls-1" cx="589.76" cy="276.24" r="28.24"/></clipPath></defs><g id="Group_284" data-name="Group 284"><g id="Layer_1-2" data-name="Layer 1"><g id="Group_270" data-name="Group 270"><line id="Line_29" data-name="Line 29" class="cls-2" x1="309.37" y1="64.94" x2="122.62" y2="388.4"/><line id="Line_30" data-name="Line 30" class="cls-2" x1="309.37" y1="496.22" x2="309.37" y2="64.94"/><line id="Line_31" data-name="Line 31" class="cls-2" x1="496.12" y1="388.4" x2="309.21" y2="64.66"/><line id="Line_32" data-name="Line 32" class="cls-2" x1="122.62" y1="172.76" x2="496.12" y2="388.4"/><line id="Line_33" data-name="Line 33" class="cls-2" x1="122.62" y1="388.4" x2="496.12" y2="388.4"/><line id="Line_34" data-name="Line 34" class="cls-2" x1="309.37" y1="496.22" x2="122.62" y2="172.76"/><line id="Line_35" data-name="Line 35" class="cls-2" x1="496.12" y1="172.76" x2="309.37" y2="496.22"/><line id="Line_36" data-name="Line 36" class="cls-2" x1="122.62" y1="388.4" x2="496.12" y2="172.76"/><line id="Line_37" data-name="Line 37" class="cls-2" x1="122.62" y1="172.76" x2="496.12" y2="172.76"/><path id="Path_83" data-name="Path 83" class="cls-2" d="M309.37,64.94,122.62,172.76V388.4L309.37,496.22,496.12,388.4V172.76Z"/><circle id="Ellipse_82" data-name="Ellipse 82" class="cls-3" cx="496.12" cy="388.4" r="7"/><circle id="Ellipse_83" data-name="Ellipse 83" class="cls-3" cx="496.12" cy="172.76" r="7"/><circle id="Ellipse_84" data-name="Ellipse 84" class="cls-3" cx="122.62" cy="388.4" r="7"/><circle id="Ellipse_85" data-name="Ellipse 85" class="cls-3" cx="122.62" cy="172.76" r="7"/><circle id="Ellipse_86" data-name="Ellipse 86" class="cls-3" cx="308.59" cy="64.94" r="7"/><circle id="Ellipse_87" data-name="Ellipse 87" class="cls-3" cx="308.59" cy="496.22" r="7"/></g><g id="Group_160" data-name="Group 160"><g id="DAO_Governors" data-name="DAO Governors"><g id="Group_271" data-name="Group 271"><g id="DAO_Governors-2" data-name="DAO Governors-2"><g id="DAO_Governors-2-2" data-name="DAO Governors-2-2" class="cls-4"><text class="cls-5" transform="translate(238.8 596.55)">DAO Governors</text></g></g></g></g></g><circle id="Ellipse_33" data-name="Ellipse 33" class="cls-6" cx="309.38" cy="281.14" r="280.39"/><g id="Group_114" data-name="Group 114"><circle id="Ellipse_36" data-name="Ellipse 36" class="cls-7" cx="309.14" cy="280.58" r="88.49"/></g><g id="Group_112" data-name="Group 112"><path id="Ellipse_37" data-name="Ellipse 37" class="cls-8" d="M309.13,191.62a89,89,0,1,1-88.95,89h0A89,89,0,0,1,309.13,191.62Z"/></g><g id="Group_159" data-name="Group 159"><g id="Group_158" data-name="Group 158"><circle id="Ellipse_73" data-name="Ellipse 73" class="cls-9" cx="122.67" cy="496.22" r="28.09"/><g id="Group_157" data-name="Group 157"><g id="Group_273" data-name="Group 273"><g id="Group_297" data-name="Group 297"><g class="cls-10"><g id="Group_296" data-name="Group 296"><g id="Group_272" data-name="Group 272"><g id="Group_156" data-name="Group 156"><g id="Ellipse_74" data-name="Ellipse 74"><circle id="Ellipse_88" data-name="Ellipse 88" class="cls-1" cx="122.47" cy="489.46" r="13.56"/><circle id="Ellipse_89" data-name="Ellipse 89" class="cls-11" cx="122.47" cy="489.46" r="11.58"/></g><g id="Ellipse_75" data-name="Ellipse 75"><ellipse id="Ellipse_90" data-name="Ellipse 90" class="cls-1" cx="122.47" cy="523.03" rx="25.13" ry="15.32"/><ellipse id="Ellipse_91" data-name="Ellipse 91" class="cls-11" cx="122.47" cy="523.03" rx="23.15" ry="13.34"/></g></g></g></g></g></g></g><circle id="Ellipse_77" data-name="Ellipse 77" class="cls-6" cx="122.67" cy="496.22" r="28.24"/></g></g></g><g id="Group_159-2" data-name="Group 159-2"><g id="Group_158-2" data-name="Group 158-2"><circle id="Ellipse_73-2" data-name="Ellipse 73-2" class="cls-9" cx="496.12" cy="496.22" r="28.09"/><g id="Group_157-2" data-name="Group 157-2"><g id="Group_275" data-name="Group 275"><g id="Group_299" data-name="Group 299"><g class="cls-12"><g id="Group_298" data-name="Group 298"><g id="Group_274" data-name="Group 274"><g id="Group_156-2" data-name="Group 156-2"><g id="Ellipse_74-2" data-name="Ellipse 74-2"><circle id="Ellipse_93" data-name="Ellipse 93" class="cls-1" cx="495.91" cy="489.46" r="13.56"/><circle id="Ellipse_94" data-name="Ellipse 94" class="cls-11" cx="495.91" cy="489.46" r="11.58"/></g><g id="Ellipse_75-2" data-name="Ellipse 75-2"><ellipse id="Ellipse_95" data-name="Ellipse 95" class="cls-1" cx="495.91" cy="523.03" rx="25.13" ry="15.32"/><ellipse id="Ellipse_96" data-name="Ellipse 96" class="cls-11" cx="495.91" cy="523.03" rx="23.15" ry="13.34"/></g></g></g></g></g></g></g><circle id="Ellipse_77-2" data-name="Ellipse 77-2" class="cls-6" cx="496.12" cy="496.22" r="28.24"/></g></g></g><g id="Group_159-3" data-name="Group 159-3"><g id="Group_158-3" data-name="Group 158-3"><circle id="Ellipse_73-3" data-name="Ellipse 73-3" class="cls-9" cx="496.12" cy="64.94" r="28.09"/><g id="Group_157-3" data-name="Group 157-3"><g id="Group_277" data-name="Group 277"><g id="Group_301" data-name="Group 301"><g class="cls-13"><g id="Group_300" data-name="Group 300"><g id="Group_276" data-name="Group 276"><g id="Group_156-3" data-name="Group 156-3"><g id="Ellipse_74-3" data-name="Ellipse 74-3"><circle id="Ellipse_98" data-name="Ellipse 98" class="cls-1" cx="495.91" cy="58.18" r="13.56"/><circle id="Ellipse_99" data-name="Ellipse 99" class="cls-11" cx="495.91" cy="58.18" r="11.58"/></g><g id="Ellipse_75-3" data-name="Ellipse 75-3"><ellipse id="Ellipse_100" data-name="Ellipse 100" class="cls-1" cx="495.91" cy="91.75" rx="25.13" ry="15.32"/><ellipse id="Ellipse_101" data-name="Ellipse 101" class="cls-11" cx="495.91" cy="91.75" rx="23.15" ry="13.34"/></g></g></g></g></g></g></g><circle id="Ellipse_77-3" data-name="Ellipse 77-3" class="cls-6" cx="496.12" cy="64.94" r="28.24"/></g></g></g><g id="Group_159-4" data-name="Group 159-4"><g id="Group_158-4" data-name="Group 158-4"><circle id="Ellipse_73-4" data-name="Ellipse 73-4" class="cls-9" cx="122.62" cy="64.94" r="28.09"/><g id="Group_157-4" data-name="Group 157-4"><g id="Group_279" data-name="Group 279"><g id="Group_303" data-name="Group 303"><g class="cls-14"><g id="Group_302" data-name="Group 302"><g id="Group_278" data-name="Group 278"><g id="Group_156-4" data-name="Group 156-4"><g id="Ellipse_74-4" data-name="Ellipse 74-4"><circle id="Ellipse_103" data-name="Ellipse 103" class="cls-1" cx="122.42" cy="58.18" r="13.56"/><circle id="Ellipse_104" data-name="Ellipse 104" class="cls-11" cx="122.42" cy="58.18" r="11.58"/></g><g id="Ellipse_75-4" data-name="Ellipse 75-4"><ellipse id="Ellipse_105" data-name="Ellipse 105" class="cls-1" cx="122.42" cy="91.75" rx="25.13" ry="15.32"/><ellipse id="Ellipse_106" data-name="Ellipse 106" class="cls-11" cx="122.42" cy="91.75" rx="23.15" ry="13.34"/></g></g></g></g></g></g></g><circle id="Ellipse_77-4" data-name="Ellipse 77-4" class="cls-6" cx="122.62" cy="64.94" r="28.24"/></g></g></g><g id="Group_159-5" data-name="Group 159-5"><g id="Group_158-5" data-name="Group 158-5"><circle id="Ellipse_73-5" data-name="Ellipse 73-5" class="cls-9" cx="28.99" cy="276.24" r="28.09"/><g id="Group_157-5" data-name="Group 157-5"><g id="Group_281" data-name="Group 281"><g id="Group_305" data-name="Group 305"><g class="cls-15"><g id="Group_304" data-name="Group 304"><g id="Group_280" data-name="Group 280"><g id="Group_156-5" data-name="Group 156-5"><g id="Ellipse_74-5" data-name="Ellipse 74-5"><circle id="Ellipse_108" data-name="Ellipse 108" class="cls-1" cx="28.79" cy="269.49" r="13.56"/><circle id="Ellipse_109" data-name="Ellipse 109" class="cls-11" cx="28.79" cy="269.49" r="11.58"/></g><g id="Ellipse_75-5" data-name="Ellipse 75-5"><ellipse id="Ellipse_110" data-name="Ellipse 110" class="cls-1" cx="28.79" cy="303.05" rx="25.13" ry="15.32"/><ellipse id="Ellipse_111" data-name="Ellipse 111" class="cls-11" cx="28.79" cy="303.05" rx="23.15" ry="13.34"/></g></g></g></g></g></g></g><circle id="Ellipse_77-5" data-name="Ellipse 77-5" class="cls-6" cx="28.99" cy="276.24" r="28.24"/></g></g></g><g id="Group_159-6" data-name="Group 159-6"><g id="Group_158-6" data-name="Group 158-6"><circle id="Ellipse_73-6" data-name="Ellipse 73-6" class="cls-9" cx="589.76" cy="276.24" r="28.09"/><g id="Group_157-6" data-name="Group 157-6"><g id="Group_283" data-name="Group 283"><g id="Group_307" data-name="Group 307"><g class="cls-16"><g id="Group_306" data-name="Group 306"><g id="Group_282" data-name="Group 282"><g id="Group_156-6" data-name="Group 156-6"><g id="Ellipse_74-6" data-name="Ellipse 74-6"><circle id="Ellipse_113" data-name="Ellipse 113" class="cls-1" cx="589.56" cy="269.49" r="13.56"/><circle id="Ellipse_114" data-name="Ellipse 114" class="cls-11" cx="589.56" cy="269.49" r="11.58"/></g><g id="Ellipse_75-6" data-name="Ellipse 75-6"><ellipse id="Ellipse_115" data-name="Ellipse 115" class="cls-1" cx="589.56" cy="303.05" rx="25.13" ry="15.32"/><ellipse id="Ellipse_116" data-name="Ellipse 116" class="cls-11" cx="589.56" cy="303.05" rx="23.15" ry="13.34"/></g></g></g></g></g></g></g><circle id="Ellipse_77-6" data-name="Ellipse 77-6" class="cls-6" cx="589.76" cy="276.24" r="28.24"/></g></g></g></g><g id="Isolation_Mode" data-name="Isolation Mode"><g id="Factory"><g id="Factory-2"><g id="Factory-2-2" class="cls-4"><text class="cls-17" transform="translate(323.36 324.94)">Factory</text></g></g></g><g id="Group_190" data-name="Group 190"><g id="Group_8-2" data-name="Group 8-2"><g id="Group_5-2" data-name="Group 5-2"><g id="Group_3-2" data-name="Group 3-2"><path id="Path_9-2" data-name="Path 9-2" class="cls-3" d="M315.66,317.79v7.9h1.94V319.6H320v-1.81Z"/><path id="Path_10-2" data-name="Path 10-2" class="cls-3" d="M293.25,317.79h-4.31v7.9h1.94V319.6h2.38Z"/><path id="Path_11-2" data-name="Path 11-2" class="cls-3" d="M286.56,316h-4.3v1.8h2.37v7.9h1.93v-7.9h2.38V316Z"/><path id="Path_12-2" data-name="Path 12-2" class="cls-3" d="M304.41,319.32a1.37,1.37,0,0,1,1.2.59,1.48,1.48,0,0,1,.22.72h1.84a3.12,3.12,0,0,0-.6-1.7,3.37,3.37,0,0,0-2.67-1.23,3.52,3.52,0,0,0-2.7,1.23,5.18,5.18,0,0,0,0,5.7,3.59,3.59,0,0,0,2.7,1.23,3.43,3.43,0,0,0,2.67-1.23,3.15,3.15,0,0,0,.6-1.7h-1.84a1.68,1.68,0,0,1-.22.72,1.37,1.37,0,0,1-1.2.58,1.57,1.57,0,0,1-1.14-.49,2.87,2.87,0,0,1-.53-2,3,3,0,0,1,.53-2A1.53,1.53,0,0,1,304.41,319.32Z"/><path id="Path_13-2" data-name="Path 13-2" class="cls-3" d="M311.58,317.7a3.37,3.37,0,0,0-2.49,1A4.39,4.39,0,0,0,308,321.8a4.25,4.25,0,0,0,1.2,3.11,3.43,3.43,0,0,0,2.45,1,3.32,3.32,0,0,0,2.62-1.1,3.07,3.07,0,0,0,.66-1.44h-1.78a1.51,1.51,0,0,1-.38.66,1.44,1.44,0,0,1-1.14.37,1.65,1.65,0,0,1-1.15-.47,2.14,2.14,0,0,1-.57-1.54h5.22c0-.16,0-.52,0-.52a4.34,4.34,0,0,0-.68-2.72A3.32,3.32,0,0,0,311.58,317.7ZM309.86,321a1.93,1.93,0,0,1,.41-1.22,1.63,1.63,0,0,1,1.3-.6,1.57,1.57,0,0,1,1.18.45,2.06,2.06,0,0,1,.48,1.36h-3.37Z"/><path id="Path_14-2" data-name="Path 14-2" class="cls-3" d="M300,323.06h0v-2.19a4,4,0,0,0-.23-1.57,2.8,2.8,0,0,0-2.91-1.59c-1.74,0-3.13.78-3.23,2.53h1.8c0-.72.56-1.11,1.43-1.11,1.06,0,1.31.5,1.31,1.23v.48l-2.29.17a2.45,2.45,0,0,0-.43,4.89h.37l.24,0a2.72,2.72,0,0,0,2.36-1.17v1h2.25v-1.35H300Zm-1.83-.47a1.77,1.77,0,0,1-1.72,1.8h0l-.27,0a1,1,0,0,1-1.1-.95v0a1.08,1.08,0,0,1,1.12-1l2-.16v.36Z"/></g><g id="Group_4-2" data-name="Group 4-2"><path id="Path_15-2" data-name="Path 15-2" class="cls-3" d="M278.15,312.28l-15,8.66,15,8.66v-2.27l-11.06-6.39,11.06-6.39Z"/><rect id="Rectangle_2-2" data-name="Rectangle 2-2" class="cls-3" x="261.19" y="312.28" width="1.97" height="17.32"/><path id="Path_16-2" data-name="Path 16-2" class="cls-3" d="M246.19,314.56,257.25,321l-11.06,6.38v2.27l15-8.66-15-8.66Z"/></g></g></g></g><g id="Group_91" data-name="Group 91"><g id="Group_87" data-name="Group 87"><path id="Path_62" data-name="Path 62" class="cls-11" d="M259.35,241.06H296.6a5.78,5.78,0,0,0,4.41-1.92l5.26-5.22H357c2.25,0,3.34,1.14,3.34,3.33v61.61h-101Z"/><path id="Path_63" data-name="Path 63" class="cls-11" d="M306.22,233.92l-5.5,5.5a7.41,7.41,0,0,1-5,1.75H259.35v-11.1c0-2.34,1.07-3.41,3.25-3.41h33.08a7.43,7.43,0,0,1,5,1.75Z"/></g><g id="Group_88" data-name="Group 88"><path id="Path_64" data-name="Path 64" class="cls-18" d="M270.31,258.37v22.2h20.74V252.21h-14.6Z"/><path id="Path_65" data-name="Path 65" class="cls-19" d="M270.31,258.37l6.16-6.16v6.16Z"/></g><g id="Group_89" data-name="Group 89"><path id="Path_66" data-name="Path 66" class="cls-18" d="M299.71,258.37v22.2h20.74V252.21h-14.6Z"/><path id="Path_67" data-name="Path 67" class="cls-19" d="M299.71,258.37l6.16-6.16v6.16Z"/></g><g id="Group_90" data-name="Group 90"><path id="Path_68" data-name="Path 68" class="cls-18" d="M328.68,258.37v22.2h20.74V252.21h-14.6Z"/><path id="Path_69" data-name="Path 69" class="cls-19" d="M328.68,258.37l6.16-6.16v6.16Z"/></g></g></g></g></svg>