<svg xmlns="http://www.w3.org/2000/svg" xmlns:xlink="http://www.w3.org/1999/xlink" width="645.509" height="586.577" viewBox="0 0 645.509 586.577"><defs><clipPath id="a"><circle cx="29.466" cy="29.466" r="29.466" fill="none"/></clipPath></defs><g transform="translate(0.75 0.75)"><path d="M292.538,0C454.1,0,585.077,130.974,585.077,292.538S454.1,585.077,292.538,585.077,0,454.1,0,292.538a294.26,294.26,0,0,1,4.79-53C29.722,103.279,149.069,0,292.538,0Z" transform="translate(29.466)" fill="none" stroke="#3da8f5" stroke-width="1.5"/><g transform="translate(97.744 487.477)"><circle cx="29.308" cy="29.308" r="29.308" transform="translate(0.158 0.158)" fill="#03065e" stroke="#fff" stroke-width="1"/><g clip-path="url(#a)"><g transform="translate(3.033 8.27)"><g transform="translate(12.069)"><circle cx="14.151" cy="14.151" r="14.151" fill="none"/><circle cx="12.084" cy="12.084" r="12.084" transform="translate(2.067 2.067)" fill="none" stroke="#fff" stroke-miterlimit="10" stroke-width="3"/></g><g transform="translate(0 33.186)"><ellipse cx="26.22" cy="15.984" rx="26.22" ry="15.984" fill="none"/><ellipse cx="24.154" cy="13.916" rx="24.154" ry="13.916" transform="translate(2.066 2.067)" fill="none" stroke="#fff" stroke-miterlimit="10" stroke-width="3"/></g></g></g><circle cx="29.466" cy="29.466" r="29.466" fill="none" stroke="#3da8f5" stroke-width="1.5"/></g><g transform="translate(487.373 487.477)"><circle cx="29.308" cy="29.308" r="29.308" transform="translate(0.158 0.158)" fill="#03065e" stroke="#fff" stroke-width="1"/><g clip-path="url(#a)"><g transform="translate(3.033 8.27)"><g transform="translate(12.069)"><circle cx="14.151" cy="14.151" r="14.151" fill="none"/><circle cx="12.084" cy="12.084" r="12.084" transform="translate(2.067 2.067)" fill="none" stroke="#fff" stroke-miterlimit="10" stroke-width="3"/></g><g transform="translate(0 33.186)"><ellipse cx="26.22" cy="15.984" rx="26.22" ry="15.984" fill="none"/><ellipse cx="24.154" cy="13.916" rx="24.154" ry="13.916" transform="translate(2.066 2.067)" fill="none" stroke="#fff" stroke-miterlimit="10" stroke-width="3"/></g></g></g><circle cx="29.466" cy="29.466" r="29.466" fill="none" stroke="#3da8f5" stroke-width="1.5"/></g><g transform="translate(487.373 37.503)"><circle cx="29.308" cy="29.308" r="29.308" transform="translate(0.158 0.158)" fill="#03065e" stroke="#fff" stroke-width="1"/><g clip-path="url(#a)"><g transform="translate(3.033 8.27)"><g transform="translate(12.069)"><circle cx="14.151" cy="14.151" r="14.151" fill="none"/><circle cx="12.084" cy="12.084" r="12.084" transform="translate(2.067 2.067)" fill="none" stroke="#fff" stroke-miterlimit="10" stroke-width="3"/></g><g transform="translate(0 33.186)"><ellipse cx="26.22" cy="15.984" rx="26.22" ry="15.984" fill="none"/><ellipse cx="24.154" cy="13.916" rx="24.154" ry="13.916" transform="translate(2.066 2.067)" fill="none" stroke="#fff" stroke-miterlimit="10" stroke-width="3"/></g></g></g><circle cx="29.466" cy="29.466" r="29.466" fill="none" stroke="#3da8f5" stroke-width="1.5"/></g><g transform="translate(97.686 37.503)"><circle cx="29.308" cy="29.308" r="29.308" transform="translate(0.158 0.158)" fill="#03065e" stroke="#fff" stroke-width="1"/><g clip-path="url(#a)"><g transform="translate(3.033 8.27)"><g transform="translate(12.069)"><circle cx="14.151" cy="14.151" r="14.151" fill="none"/><circle cx="12.084" cy="12.084" r="12.084" transform="translate(2.067 2.067)" fill="none" stroke="#fff" stroke-miterlimit="10" stroke-width="3"/></g><g transform="translate(0 33.186)"><ellipse cx="26.22" cy="15.984" rx="26.22" ry="15.984" fill="none"/><ellipse cx="24.154" cy="13.916" rx="24.154" ry="13.916" transform="translate(2.066 2.067)" fill="none" stroke="#fff" stroke-miterlimit="10" stroke-width="3"/></g></g></g><circle cx="29.466" cy="29.466" r="29.466" fill="none" stroke="#3da8f5" stroke-width="1.5"/></g><g transform="translate(0 257.968)"><circle cx="29.308" cy="29.308" r="29.308" transform="translate(0.158 0.158)" fill="#03065e" stroke="#fff" stroke-width="1"/><g clip-path="url(#a)"><g transform="translate(3.033 8.27)"><g transform="translate(12.069)"><circle cx="14.151" cy="14.151" r="14.151" fill="none"/><circle cx="12.084" cy="12.084" r="12.084" transform="translate(2.067 2.067)" fill="none" stroke="#fff" stroke-miterlimit="10" stroke-width="3"/></g><g transform="translate(0 33.186)"><ellipse cx="26.22" cy="15.984" rx="26.22" ry="15.984" fill="none"/><ellipse cx="24.154" cy="13.916" rx="24.154" ry="13.916" transform="translate(2.066 2.067)" fill="none" stroke="#fff" stroke-miterlimit="10" stroke-width="3"/></g></g></g><circle cx="29.466" cy="29.466" r="29.466" fill="none" stroke="#3da8f5" stroke-width="1.5"/></g><g transform="translate(585.077 257.968)"><circle cx="29.308" cy="29.308" r="29.308" transform="translate(0.158 0.158)" fill="#03065e" stroke="#fff" stroke-width="1"/><g clip-path="url(#a)"><g transform="translate(3.033 8.27)"><g transform="translate(12.069)"><circle cx="14.151" cy="14.151" r="14.151" fill="none"/><circle cx="12.084" cy="12.084" r="12.084" transform="translate(2.067 2.067)" fill="none" stroke="#fff" stroke-miterlimit="10" stroke-width="3"/></g><g transform="translate(0 33.186)"><ellipse cx="26.22" cy="15.984" rx="26.22" ry="15.984" fill="none"/><ellipse cx="24.154" cy="13.916" rx="24.154" ry="13.916" transform="translate(2.066 2.067)" fill="none" stroke="#fff" stroke-miterlimit="10" stroke-width="3"/></g></g></g><circle cx="29.466" cy="29.466" r="29.466" fill="none" stroke="#3da8f5" stroke-width="1.5"/></g></g></svg>