<svg xmlns="http://www.w3.org/2000/svg" width="404.29" height="464.577" viewBox="0 0 404.29 464.577"><line x1="194.845" y2="337.481" transform="translate(7.301 7.301)" fill="none" stroke="#3da8f5" stroke-width="1"/><line y1="449.974" transform="translate(202.146 7.301)" fill="none" stroke="#3da8f5" stroke-width="1"/><line x1="195.01" y1="337.768" transform="translate(201.98 7.014)" fill="none" stroke="#3da8f5" stroke-width="1"/><line x2="389.689" y2="224.987" transform="translate(7.301 119.794)" fill="none" stroke="#3da8f5" stroke-width="1"/><line x2="389.689" transform="translate(7.301 344.781)" fill="none" stroke="#3da8f5" stroke-width="1"/><line x1="194.845" y1="337.481" transform="translate(7.301 119.794)" fill="none" stroke="#3da8f5" stroke-width="1"/><line x1="194.845" y2="337.481" transform="translate(202.146 119.794)" fill="none" stroke="#3da8f5" stroke-width="1"/><line y1="224.987" x2="389.689" transform="translate(7.301 119.794)" fill="none" stroke="#3da8f5" stroke-width="1"/><line x2="389.689" transform="translate(7.301 119.794)" fill="none" stroke="#3da8f5" stroke-width="1"/><path d="M333.8,83.84,138.96,196.333V421.32L333.8,533.814,528.649,421.32V196.333Z" transform="translate(-131.659 -76.538)" fill="none" stroke="#3da8f5" stroke-width="1"/><circle cx="7.301" cy="7.301" r="7.301" transform="translate(389.687 337.481)" fill="#3da8f5"/><circle cx="7.301" cy="7.301" r="7.301" transform="translate(389.687 112.493)" fill="#3da8f5"/><circle cx="7.301" cy="7.301" r="7.301" transform="translate(0 337.481)" fill="#3da8f5"/><circle cx="7.301" cy="7.301" r="7.301" transform="translate(0 112.493)" fill="#3da8f5"/><circle cx="7.301" cy="7.301" r="7.301" transform="translate(194.035)" fill="#3da8f5"/><circle cx="7.301" cy="7.301" r="7.301" transform="translate(194.035 449.974)" fill="#3da8f5"/></svg>