<svg id="Layer_1" data-name="Layer 1" xmlns="http://www.w3.org/2000/svg" xmlns:xlink="http://www.w3.org/1999/xlink" width="256" height="256" viewBox="0 0 256 256"><defs><clipPath id="clip-path"><circle cx="129" cy="127" r="123.78" fill="none"/></clipPath></defs><g clip-path="url(#clip-path)"><circle cx="128.11" cy="97.4" r="59.45" fill="none"/><ellipse cx="128.11" cy="244.52" rx="110.15" ry="67.15" fill="none"/></g><circle cx="129" cy="127" r="123.78" fill="#fff" stroke="#000" stroke-width="1.5"/><path d="M31.88,147.14a1.43,1.43,0,0,1-.5-.09c-1.45-.5-1.22-2.81-.82-6.65.35-3.38.83-8-.39-9.91-1.59-2.47-5.24-1.74-8.77-1-3,.6-5.86,1.17-7.6-.25a4.46,4.46,0,0,1-1.39-3.69,28.44,28.44,0,0,1,44.34-23.58c8.39,5.66,13.19,14.72,12.54,23.65a2,2,0,0,1-.7,1.39c-1.19,1-3.59.74-6.92.4-6-.63-14.19-1.49-18.07,4.7C35.47,145,33.22,147.14,31.88,147.14ZM26.33,127c2.14,0,4.08.58,5.33,2.52,1.56,2.43,1.08,7,.66,11.06a27.42,27.42,0,0,0-.25,4.62c1-.68,3.6-3.85,10-14.08,4.47-7.12,13.67-6.15,19.76-5.52,2.33.25,5,.52,5.59,0,0,0,.06-.05.07-.17.61-8.29-3.9-16.74-11.76-22a26.67,26.67,0,0,0-41.58,22.12,2.86,2.86,0,0,0,.75,2.32c1.08.89,3.64.37,6.12-.12a26.83,26.83,0,0,1,5.28-.71Z"/><path d="M30.08,147a2.87,2.87,0,0,1-1.19-.23c-2.84-1.17-2.74-6.11-2.61-11.82,0-.67,0-1.35,0-2a27.7,27.7,0,0,1,.37-3.74,15.65,15.65,0,0,0,.2-1.66c0-1-.14-1.18-.14-1.18a4.7,4.7,0,0,0-1.11.25,4.78,4.78,0,0,1-3.86-.1c-1.15-.68-2-2.08-2.46-4.28h0a19.22,19.22,0,0,1,3.86-16.53,22.81,22.81,0,0,1,17.67-8.56,28.3,28.3,0,0,1,15.89,4.85c8.27,5.58,13,14.42,12.55,23.64-.19,4.21-5,5-10.61,5.93S47,133.43,43,137.59C36.85,144,32.78,147,30.08,147Zm-3.37-22.42a1.77,1.77,0,0,1,1.15.38,3.08,3.08,0,0,1,.8,2.62,14.67,14.67,0,0,1-.22,1.87,25.77,25.77,0,0,0-.35,3.5c0,.68,0,1.36,0,2-.1,4.42-.21,9.43,1.52,10.15,1.23.51,4.33-.59,12.15-8.74,4.39-4.59,11.2-5.71,16.68-6.62s9-1.62,9.13-4.26c.38-8.6-4-16.85-11.77-22.08a26.47,26.47,0,0,0-14.9-4.55,21.29,21.29,0,0,0-16.28,7.89,17.43,17.43,0,0,0-3.52,15c.39,1.68.93,2.74,1.63,3.16a3.25,3.25,0,0,0,2.48-.09,5.84,5.84,0,0,1,1.54-.3Z"/><path d="M30.6,147.6a7.53,7.53,0,0,1-3.72-.91c-4.76-2.64-5.25-10.55-5.2-16.26a9.6,9.6,0,0,1,2.26-6,4.92,4.92,0,0,1,4-2.24h0c-.25-.53-.63-1.28-1.07-2.17l-.62-1.24a13.69,13.69,0,0,1,.53-13.76,17.15,17.15,0,0,1,14-8,28.26,28.26,0,0,1,15.88,4.84,27.68,27.68,0,0,1,12.56,23.62c-.18,7-7.42,9.55-15.08,12.3-4.1,1.47-8.34,3-11.89,5.25C37.57,146.1,33.7,147.6,30.6,147.6ZM28,124a3.19,3.19,0,0,0-2.61,1.55,7.89,7.89,0,0,0-1.89,4.9c-.07,8.25,1.33,13.05,4.29,14.7s7.43.38,13.63-3.56c3.72-2.36,8.05-3.91,12.24-5.42,7.38-2.65,13.76-4.94,13.91-10.67a26,26,0,0,0-11.78-22.11,26.61,26.61,0,0,0-14.89-4.54A15.34,15.34,0,0,0,28.33,106a12,12,0,0,0-.45,12l.61,1.23c1.64,3.26,1.85,3.68,1.39,4.34a1.36,1.36,0,0,1-1.4.43,4,4,0,0,0-.53,0Z"/><path d="M34.28,149.72a15.73,15.73,0,0,1-9.63-3C19.79,143.09,17,136.26,17,128c0-2.57,1.32-4.61,4-6.23,2.94-1.78,6.7-2,9.72-2.22,1.75-.11,4.13-.26,4.38-.82,0-.12.19-.83-1.84-3.26-4.28-5.14-3.18-9.63-2.14-11.85a11.39,11.39,0,0,1,9.69-6.51A28.43,28.43,0,0,1,69.29,125.5v0c-.16,13.06-14.88,19.17-27.68,23A25.74,25.74,0,0,1,34.28,149.72Zm6.57-50.87a9.69,9.69,0,0,0-8.09,5.49c-1.48,3.18-.81,6.71,1.9,10h0c2,2.38,2.62,3.9,2.1,5.09-.67,1.57-3,1.72-5.89,1.9s-6.35.41-8.91,2c-2.14,1.29-3.14,2.79-3.14,4.72,0,7.72,2.48,14,6.89,17.32,3.87,2.89,9.19,3.43,15.39,1.56,13-3.92,26.28-9.52,26.42-21.35A26.66,26.66,0,0,0,40.85,98.85Z"/><path d="M40.85,154a28.47,28.47,0,0,1-28.44-28.44c0-6.92,11-8,19.86-8.8,4.17-.4,9.87-.94,10.22-2.14,0-.07.15-.78-2.15-2.56-5.78-4.49-5.49-8.54-4.8-10.55.94-2.75,3.44-4.39,5.31-4.39a28.44,28.44,0,0,1,0,56.88Zm0-55.11A4.57,4.57,0,0,0,37.22,102c-.93,2.71.56,5.75,4.2,8.58,1.43,1.1,3.26,2.77,2.77,4.45-.68,2.36-5.32,2.8-11.75,3.41-8.14.77-18.26,1.74-18.26,7A26.67,26.67,0,1,0,40.85,98.85Z"/><path d="M85.36,114v20.62H97.27v2.4H82.7V114Z"/><path d="M100.19,113.91a2.09,2.09,0,1,1-2.1,2.07h0a2,2,0,0,1,2-2.07Zm1.29,23.15H98.94V121h2.54Z"/><path d="M112.1,120.55c4.86,0,8.22,3.42,8.22,8.49s-3.36,8.48-8.22,8.48-8.19-3.45-8.19-8.48S107.23,120.55,112.1,120.55Zm0,14.73c3.42,0,5.68-2.53,5.68-6.24s-2.26-6.25-5.68-6.25-5.69,2.6-5.69,6.25C106.41,132.85,108.68,135.28,112.1,135.28Z"/><path d="M125.21,121v2.7h.33c.76-1.51,2.37-3,5.69-3,3.52,0,6.35,2.33,6.35,6.64v9.73h-2.5v-9.57c0-3.22-1.74-4.63-4.5-4.63-3.09,0-5.3,2.07-5.3,6.08v8.12h-2.53V121Z"/><path d="M141.46,113.52a2.16,2.16,0,0,1,2.24,2.07,1.77,1.77,0,0,1,0,.23v2.1a3.12,3.12,0,0,1-3.45,3.45h-.65v-1.64h.72a1.31,1.31,0,0,0,1.51-1.08,1.55,1.55,0,0,0,0-.43v-.33h-.4a2.1,2.1,0,0,1-2.2-2v-.17a2.14,2.14,0,0,1,2-2.23Z"/><path d="M150.83,120.55c3.62,0,5.92,1.75,6.58,4.71l-2.34.62c-.46-2.37-2.07-3.29-4.24-3.29s-3.59.89-3.59,2.5,1.38,2.2,3.29,2.53l1.65.23c3.29.56,5.78,1.55,5.78,4.71s-2.56,5-6.47,5-6.91-1.81-7.5-5.78l2.4-.56c.52,3.29,2.63,4.3,5.1,4.3s4-1.11,4-2.79-1.38-2.27-3.72-2.66l-1.64-.23c-3-.5-5.4-1.78-5.4-4.64S147.11,120.55,150.83,120.55Z"/><path d="M173.88,114l7,20.29h.33l7-20.29H193v23h-2.63V116.87H190l-7,20.19h-3.82l-7-20.19h-.33v20.19h-2.63V114Z"/><path d="M202.94,120.55c4.08,0,6.52,2.24,6.52,6v10.49H207v-2.3h-.36c-.73,1.28-2.11,2.76-5.26,2.76-3.36,0-5.92-1.81-5.92-5s2.56-4.87,6-4.87H207v-1.18c0-2.31-1.34-3.75-4-3.75a4.35,4.35,0,0,0-4.6,3.48l-2.37-.72C196.73,122.76,198.9,120.55,202.94,120.55Zm-1.18,14.87c3.09,0,5.2-2,5.2-5.33v-.4h-5.4c-2.07,0-3.58,1-3.58,2.77S199.49,135.42,201.76,135.42Z"/><path d="M215.21,121v2.7h.33c.76-1.51,2.37-3,5.69-3,3.52,0,6.35,2.33,6.35,6.64v9.73h-2.51v-9.57c0-3.22-1.74-4.63-4.5-4.63-3.09,0-5.3,2.07-5.3,6.08v8.12h-2.53V121Z"/><path d="M237.86,120.55c4.54,0,7.73,3,7.73,7.93v1.35H232.41a5.49,5.49,0,0,0,5.68,5.45,5.2,5.2,0,0,0,5.07-3.25l2.17,1.12a7.55,7.55,0,0,1-7.23,4.37c-5,0-8.29-3.68-8.29-8.62S233.2,120.55,237.86,120.55Zm5.14,7.17a4.78,4.78,0,0,0-5.13-4.93,5.2,5.2,0,0,0-5.43,4.93Z"/></svg>