<?xml version="1.0" encoding="utf-8"?>
<!-- Generator: Adobe Illustrator 25.2.1, SVG Export Plug-In . SVG Version: 6.00 Build 0)  -->
<svg version="1.1" id="Layer_1" xmlns="http://www.w3.org/2000/svg" xmlns:xlink="http://www.w3.org/1999/xlink" x="0px" y="0px"
	 viewBox="0 0 194.2 194" style="enable-background:new 0 0 194.2 194;" xml:space="preserve">
<style type="text/css">
	.st0{fill:#03065E;stroke:#000000;stroke-miterlimit:10;}
	.st1{fill:#FFFFFF;}
</style>
<circle class="st0" cx="97.5" cy="97.5" r="96.5"/>
<g id="Group_69">
	<g id="Group_68">
		<path id="Path_43" class="st1" d="M66.4,170.7c-0.6,0-1.1-0.1-1.7-0.3c-5-1.7-4.1-9.6-2.8-22.7c1.2-11.6,2.8-27.3-1.3-33.8
			c-5.4-8.4-17.9-5.9-29.9-3.5c-10.3,2.1-20,4-25.9-0.8c-3.4-3.2-5.2-7.9-4.7-12.6C0.1,43.4,43.6,0,97.2,0
			c19.3,0,38.1,5.8,54.1,16.5c28.6,19.3,45,50.2,42.8,80.6c-0.1,1.9-1,3.6-2.4,4.8c-4,3.4-12.2,2.5-23.6,1.3
			c-20.4-2.1-48.4-5.1-61.6,16C78.7,163.4,71,170.7,66.4,170.7z M47.5,102c7.2-0.6,14.1,2.7,18.2,8.6c5.3,8.3,3.7,23.9,2.3,37.7
			c-0.7,5.2-1,10.5-0.8,15.8c3.4-2.3,12.3-13.1,34.2-48c15.2-24.3,46.6-21,67.4-18.8c8,0.8,17,1.8,19.1,0c0.1-0.1,0.2-0.2,0.2-0.6
			c2.1-28.3-13.3-57.1-40.1-75.2C106.2-6.5,49.7,4.5,21.6,46.2C11.5,61.2,6.1,78.9,6.1,97c-0.4,2.9,0.6,5.8,2.6,7.9
			c3.7,3,12.4,1.3,20.9-0.4C35.4,103.1,41.5,102.3,47.5,102z"/>
		<path id="Path_44" class="st1" d="M60.3,170.1c-1.4,0-2.8-0.3-4.1-0.8c-9.7-4-9.3-20.8-8.9-40.3c0.1-2.3,0.1-4.6,0.1-6.9
			c0.1-4.3,0.6-8.5,1.3-12.7c0.3-1.9,0.5-3.8,0.7-5.7c0.1-3.3-0.5-4-0.5-4c-1.3,0.1-2.6,0.4-3.8,0.8c-4.2,1.8-9,1.6-13.2-0.3
			c-4.7-3.5-7.7-8.8-8.4-14.6l0,0C19,65.8,23.9,44.9,36.8,29.2C51.4,10.9,73.6,0.2,97,0c19.3,0,38.2,5.7,54.2,16.5
			c28.2,19,44.2,49.1,42.8,80.6c-0.6,14.4-17.1,17.1-36.2,20.2c-18.7,3.1-39.9,6.6-53.5,20.8C83.4,159.9,69.5,170.1,60.3,170.1z
			 M48.8,93.7c1.4,0,2.8,0.4,3.9,1.3c2.3,2.4,3.3,5.7,2.8,8.9c-0.1,2.1-0.4,4.3-0.8,6.4c-0.7,3.9-1.1,7.9-1.2,11.9
			c0,2.3-0.1,4.6-0.1,7c-0.3,15.1-0.7,32.2,5.2,34.6c4.2,1.7,14.8-2,41.4-29.8c15-15.6,38.2-19.5,56.9-22.6
			c19-3.1,30.7-5.5,31.1-14.5c1.3-29.3-13.7-57.5-40.1-75.3C132.8,11.4,115.1,6,97,6C75.4,6.3,55.1,16.2,41.5,32.9
			c-11.7,14.3-16.2,33.2-12,51.2c0.4,4.2,2.4,8,5.6,10.8c2.7,1,5.8,0.9,8.5-0.3C45.3,94.1,47.1,93.7,48.8,93.7L48.8,93.7z"/>
		<path id="Path_45" class="st1" d="M62.1,172.3c-4.4,0.1-8.8-1-12.7-3.1c-16.2-9-17.9-36-17.7-55.4c0.2-7.5,2.9-14.6,7.7-20.4
			c3-4.7,8.2-7.5,13.7-7.6l0,0c-0.8-1.8-2.1-4.4-3.7-7.4l-2.1-4.2c-7.9-14.8-7.2-32.8,1.8-47C59.6,10.7,77.6,0.5,97,0
			c19.3,0,38.1,5.7,54.1,16.5c27.2,17.7,43.3,48.1,42.8,80.5c-0.6,23.7-25.3,32.5-51.4,41.9c-14.1,4.5-27.7,10.5-40.5,17.9
			C85.9,167.2,72.7,172.3,62.1,172.3z M53.1,91.8c-3.7,0.1-7.1,2.1-9,5.3c-4,4.7-6.3,10.6-6.4,16.7c-0.2,28.1,4.5,44.5,14.6,50.1
			c9.7,5.4,25.3,1.3,46.5-12.1c13.2-7.7,27.2-13.9,41.7-18.5c25.2-9,46.9-16.8,47.4-36.4c0.4-30.4-14.7-58.8-40.2-75.4
			C132.8,11.4,115.1,6,97,6.1c-17.4,0.5-33.4,9.6-42.7,24.3c-7.8,12.4-8.4,28.1-1.5,41.1l2.1,4.2c5.6,11.1,6.3,12.5,4.7,14.8
			c-1.2,1.4-3,2-4.8,1.5C54.3,91.8,53.7,91.8,53.1,91.8L53.1,91.8z"/>
		<path id="Path_46" class="st1" d="M74.6,179.5c-11.8,0.3-23.3-3.3-32.8-10.2c-16.6-12.4-26-35.7-25.9-63.9
			c0-8.8,4.5-15.7,13.6-21.3c10-6.1,22.9-6.9,33.1-7.6c5.9-0.4,14.1-0.9,14.9-2.8c0.2-0.4,0.7-2.8-6.2-11.1
			C56.7,45.1,60.5,29.8,64,22.2C70.1,9.3,82.7,0.8,97,0c53.5,0,97,43.3,97,96.9c0,0,0,0,0,0V97c-0.6,44.5-50.7,65.3-94.4,78.5
			C91.5,178.1,83.1,179.4,74.6,179.5z M97,6.1c-11.9,0.8-22.5,8-27.6,18.7c-5,10.8-2.8,22.9,6.5,33.9l0,0c6.8,8.1,8.9,13.3,7.2,17.4
			c-2.3,5.3-10.1,5.8-20.1,6.5c-9.7,0.6-21.6,1.4-30.4,6.7c-7.3,4.4-10.7,9.5-10.7,16.1c-0.1,26.3,8.5,47.8,23.5,59
			c13.2,9.9,31.4,11.7,52.5,5.3c44.3-13.3,89.6-32.4,90.1-72.8C187.9,46.7,147.2,6,97,6.1L97,6.1z"/>
		<path id="Path_47" class="st1" d="M97,194c-53.6,0-97-43.4-97-97c0-23.6,37.5-27.1,67.7-30c14.2-1.3,33.7-3.2,34.9-7.3
			c0.1-0.2,0.5-2.7-7.4-8.7c-19.7-15.3-18.7-29.1-16.3-36c2.5-8.2,9.6-14.1,18.1-15c53.6,0,97,43.4,97.1,96.9
			c0,53.6-43.4,97-96.9,97.1L97,194L97,194z M97,6.1C91.2,7,86.3,11.3,84.6,17c-3.2,9.2,1.9,19.6,14.3,29.2
			c4.9,3.8,11.1,9.4,9.4,15.2c-2.3,8-18.2,9.5-40.1,11.6C40.6,75.6,6.1,78.9,6.1,97c0,50.2,40.7,90.9,90.9,91S188,147.2,188,97
			S147.3,6.1,97,6.1C97,6.1,97,6.1,97,6.1z"/>
	</g>
</g>
</svg>
