<svg xmlns="http://www.w3.org/2000/svg" viewBox="0 0 194.22 193.97"><defs><style>.cls-1{fill:#fff;}</style></defs><g id="Group_69" data-name="Group 69"><g id="Group_68" data-name="Group 68"><path id="Path_43" data-name="Path 43" class="cls-1" d="M69.33,173.53a5.1,5.1,0,0,1-1.69-.3c-5-1.72-4.14-9.6-2.8-22.67C66,139,67.66,123.24,63.5,116.77c-5.42-8.43-17.86-5.94-29.88-3.52-10.28,2.06-20,4-25.9-.85A15.26,15.26,0,0,1,3,99.81,97,97,0,0,1,154.15,19.4c28.6,19.31,45,50.21,42.76,80.63a6.69,6.69,0,0,1-2.39,4.77c-4,3.39-12.24,2.53-23.59,1.34-20.41-2.13-48.37-5.06-61.61,16C81.56,166.28,73.9,173.53,69.33,173.53ZM50.41,104.88a19.84,19.84,0,0,1,18.17,8.61c5.31,8.28,3.68,23.91,2.27,37.7A94.62,94.62,0,0,0,70,167c3.44-2.33,12.27-13.13,34.19-48,15.25-24.27,46.62-21,67.37-18.81,8,.83,17,1.77,19.08,0,.11-.09.22-.18.25-.57,2.06-28.26-13.3-57.08-40.11-75.19A90.94,90.94,0,0,0,9,99.82a9.74,9.74,0,0,0,2.55,7.91c3.7,3,12.41,1.29,20.87-.4A95,95,0,0,1,50.41,104.88Z" transform="translate(-2.89 -2.83)"/><path id="Path_44" data-name="Path 44" class="cls-1" d="M63.19,172.93a10.49,10.49,0,0,1-4.07-.78c-9.69-4-9.32-20.84-8.9-40.32q.08-3.45.14-6.89a92.09,92.09,0,0,1,1.27-12.74q.48-2.83.68-5.69c.11-3.27-.46-4-.46-4a17.58,17.58,0,0,0-3.79.83A16.22,16.22,0,0,1,34.9,103a21.45,21.45,0,0,1-8.36-14.6h0A65.46,65.46,0,0,1,39.69,32.05,77.7,77.7,0,0,1,99.92,2.86,96.51,96.51,0,0,1,154.1,19.41c28.19,19,44.19,49.15,42.79,80.58-.64,14.36-17.1,17.08-36.18,20.23-18.71,3.09-39.91,6.59-53.5,20.78C86.3,162.77,72.39,172.93,63.19,172.93ZM51.69,96.49a6.07,6.07,0,0,1,3.91,1.26,10.6,10.6,0,0,1,2.76,8.94,59.86,59.86,0,0,1-.76,6.39A86.74,86.74,0,0,0,56.4,125c0,2.3-.09,4.65-.13,7-.33,15.08-.7,32.18,5.17,34.6,4.18,1.74,14.77-2,41.38-29.8,15-15.63,38.21-19.47,56.88-22.56,19-3.14,30.73-5.51,31.13-14.53,1.3-29.31-13.7-57.47-40.13-75.29A90.44,90.44,0,0,0,99.9,8.87,72.6,72.6,0,0,0,44.39,35.78,59.52,59.52,0,0,0,32.4,87,16.6,16.6,0,0,0,38,97.78a11.1,11.1,0,0,0,8.45-.3,19.93,19.93,0,0,1,5.3-1Z" transform="translate(-2.89 -2.83)"/><path id="Path_45" data-name="Path 45" class="cls-1" d="M65,175.09A25.62,25.62,0,0,1,52.29,172c-16.24-9-17.9-36-17.74-55.45a33,33,0,0,1,7.71-20.36A16.84,16.84,0,0,1,56,88.57H56c-.85-1.81-2.13-4.37-3.65-7.41L50.29,77A46.74,46.74,0,0,1,52.09,30,58.48,58.48,0,0,1,99.91,2.84,96.49,96.49,0,0,1,154,19.35a94.35,94.35,0,0,1,42.83,80.54c-.62,23.68-25.28,32.54-51.42,41.92a205.5,205.5,0,0,0-40.52,17.9C88.77,170,75.54,175.09,65,175.09Zm-9-80.46A11,11,0,0,0,47,99.92a26.85,26.85,0,0,0-6.43,16.7c-.24,28.13,4.54,44.52,14.63,50.12,9.71,5.38,25.34,1.31,46.47-12.11a209.61,209.61,0,0,1,41.73-18.48c25.17-9,46.89-16.85,47.43-36.4a88.39,88.39,0,0,0-40.18-75.37A90.44,90.44,0,0,0,99.91,8.9,52.21,52.21,0,0,0,57.23,33.21a40.92,40.92,0,0,0-1.54,41.06l2.11,4.2C63.36,89.59,64.08,91,62.53,93.26a4.64,4.64,0,0,1-4.77,1.48,16.39,16.39,0,0,0-1.83-.13Z" transform="translate(-2.89 -2.83)"/><path id="Path_46" data-name="Path 46" class="cls-1" d="M77.51,182.34a53.75,53.75,0,0,1-32.83-10.25c-16.58-12.37-26-35.66-25.92-63.91,0-8.78,4.5-15.73,13.62-21.26,10-6.08,22.85-6.9,33.15-7.55,5.94-.38,14.08-.92,14.91-2.83.17-.4.67-2.82-6.24-11.12-14.61-17.5-10.86-32.81-7.32-40.37a38.8,38.8,0,0,1,33-22.22,96.94,96.94,0,0,1,97,96.91v.1c-.55,44.52-50.74,65.33-94.41,78.5A86.8,86.8,0,0,1,77.51,182.34ZM99.92,8.88A33,33,0,0,0,72.33,27.62c-5,10.82-2.76,22.87,6.48,33.94h0c6.77,8.1,8.91,13.3,7.16,17.37-2.3,5.34-10.14,5.84-20.08,6.47-9.65.62-21.63,1.38-30.39,6.69-7.29,4.41-10.69,9.54-10.72,16.12-.1,26.31,8.46,47.82,23.49,59,13.21,9.85,31.36,11.69,52.47,5.33,44.27-13.34,89.6-32.44,90.11-72.8A90.92,90.92,0,0,0,99.91,8.88Z" transform="translate(-2.89 -2.83)"/><path id="Path_47" data-name="Path 47" class="cls-1" d="M99.91,196.79a97.08,97.08,0,0,1-97-97c0-23.58,37.55-27.13,67.72-30,14.21-1.34,33.66-3.19,34.86-7.29.07-.25.5-2.65-7.36-8.73-19.7-15.3-18.7-29.1-16.34-36a21.4,21.4,0,0,1,18.1-15,97,97,0,0,1,.12,194h-.13Zm0-187.9A15.57,15.57,0,0,0,87.53,19.78C84.37,29,89.46,39.38,101.87,49c4.86,3.77,11.13,9.44,9.45,15.2-2.33,8-18.17,9.54-40.09,11.62C43.5,78.46,9,81.74,9,99.82A90.94,90.94,0,1,0,99.91,8.89Z" transform="translate(-2.89 -2.83)"/></g></g></svg>