<svg xmlns="http://www.w3.org/2000/svg" width="337.899" height="82.432" viewBox="0 0 337.899 82.432"><g transform="translate(-85.175 -342.247)"><g transform="translate(85.175 342.247)"><g transform="translate(0 0)"><path d="M113.389,414.8a2.175,2.175,0,0,1-.717-.132c-2.11-.727-1.765-4.079-1.191-9.633.507-4.9,1.2-11.611-.569-14.362-2.3-3.579-7.591-2.52-12.708-1.494-4.365.874-8.489,1.7-11.005-.361-1.362-1.116-2.024-2.866-2.024-5.349a41.22,41.22,0,0,1,64.258-34.176c12.153,8.211,19.114,21.341,18.168,34.269a2.847,2.847,0,0,1-1.017,2.026c-1.717,1.439-5.2,1.074-10.025.569-8.676-.906-20.558-2.152-26.19,6.809C118.589,411.708,115.334,414.8,113.389,414.8Zm-8.039-29.177c3.108,0,5.911.845,7.722,3.66,2.258,3.509,1.571,10.153.965,16.016a39.682,39.682,0,0,0-.37,6.7c1.459-.991,5.214-5.58,14.53-20.4,6.482-10.315,19.813-8.921,28.632-8,3.384.354,7.224.755,8.109.015.045-.038.092-.076.1-.244.88-12.012-5.651-24.257-17.043-31.954a38.651,38.651,0,0,0-60.253,32.046c0,1.665.354,2.765,1.085,3.362,1.574,1.289,5.285.547,8.872-.172A40.516,40.516,0,0,1,105.349,385.62Z" transform="translate(-85.175 -342.249)"/><path d="M120.2,414.536a4.465,4.465,0,0,1-1.729-.33c-4.119-1.708-3.962-8.857-3.782-17.135.021-.975.043-1.96.057-2.94a39.421,39.421,0,0,1,.54-5.415,23.353,23.353,0,0,0,.292-2.417c.047-1.39-.2-1.7-.2-1.7a7.458,7.458,0,0,0-1.611.354c-1.536.43-3.639,1.022-5.6-.137-1.659-.986-2.822-3.015-3.555-6.206h0a27.822,27.822,0,0,1,5.59-23.953,33.03,33.03,0,0,1,25.6-12.4,41.007,41.007,0,0,1,23.026,7.027c11.982,8.086,18.781,20.888,18.189,34.247-.271,6.1-7.272,7.258-15.379,8.6-7.951,1.312-16.962,2.8-22.738,8.829C130.016,410.218,124.106,414.536,120.2,414.536Zm-4.878-32.487a2.586,2.586,0,0,1,1.659.54c1.117.876,1.209,2.491,1.166,3.8a24.681,24.681,0,0,1-.321,2.716,36.528,36.528,0,0,0-.51,5.068c-.014.984-.036,1.975-.057,2.955-.141,6.408-.3,13.672,2.2,14.708,1.777.738,6.279-.859,17.6-12.666,6.369-6.647,16.241-8.277,24.175-9.586,8.093-1.336,13.062-2.35,13.232-6.177.552-12.458-5.824-24.422-17.059-32a38.443,38.443,0,0,0-21.589-6.588,30.856,30.856,0,0,0-23.59,11.436,25.289,25.289,0,0,0-5.1,21.778c.559,2.435,1.354,3.973,2.362,4.572s2.322.231,3.589-.127A8.713,8.713,0,0,1,115.317,382.049Z" transform="translate(-94.589 -342.247)"/><path d="M125.138,415.459a10.908,10.908,0,0,1-5.389-1.314c-6.9-3.83-7.609-15.284-7.54-23.566a14.016,14.016,0,0,1,3.273-8.654c2.178-2.8,4.382-3.239,5.824-3.239h.035c-.361-.77-.906-1.857-1.553-3.15l-.894-1.79a19.869,19.869,0,0,1,.765-19.947,24.853,24.853,0,0,1,20.329-11.55A41.021,41.021,0,0,1,163,349.266c11.755,7.925,18.562,20.721,18.2,34.233-.265,10.063-10.752,13.829-21.854,17.818-5.939,2.133-12.082,4.339-17.224,7.605C135.244,413.29,129.628,415.459,125.138,415.459Zm-3.841-34.2c-1,0-2.291.328-3.787,2.247a11.411,11.411,0,0,0-2.732,7.1c-.1,11.953,1.933,18.922,6.217,21.3,4.127,2.289,10.771.557,19.752-5.146,5.384-3.419,11.662-5.674,17.733-7.854,10.7-3.842,19.937-7.161,20.157-15.467.333-12.628-6.05-24.6-17.075-32.036a38.457,38.457,0,0,0-21.573-6.578,22.2,22.2,0,0,0-18.144,10.334,17.382,17.382,0,0,0-.651,17.449l.892,1.784c2.367,4.726,2.671,5.336,2.011,6.288a1.967,1.967,0,0,1-2.024.63C121.842,381.282,121.582,381.255,121.3,381.255Z" transform="translate(-98.775 -342.249)"/><path d="M123.669,418.537a22.83,22.83,0,0,1-13.952-4.356c-7.046-5.255-11.062-15.154-11.017-27.159.017-3.73,1.912-6.686,5.792-9.037,4.261-2.582,9.709-2.93,14.086-3.209,2.525-.161,5.984-.382,6.337-1.2.073-.17.288-1.2-2.654-4.722-6.208-7.439-4.612-13.944-3.106-17.16,2.56-5.472,8.466-9.443,14.042-9.443a41.2,41.2,0,0,1,41.215,41.231c-.233,18.921-21.564,27.769-40.121,33.365A36.867,36.867,0,0,1,123.669,418.537Zm9.525-73.719c-4.556,0-9.593,3.423-11.717,7.963-2.152,4.6-1.175,9.721,2.753,14.426h0c2.875,3.443,3.785,5.651,3.04,7.381-.975,2.27-4.309,2.482-8.532,2.753-4.1.26-9.2.587-12.918,2.843-3.095,1.874-4.542,4.051-4.554,6.85-.042,11.181,3.6,20.325,9.985,25.089,5.615,4.186,13.324,4.971,22.3,2.265,18.817-5.674,38.083-13.788,38.294-30.939a38.641,38.641,0,0,0-38.648-38.633Z" transform="translate(-91.979 -342.247)"/><path d="M126.39,424.683a41.262,41.262,0,0,1-41.215-41.215c0-10.022,15.959-11.535,28.783-12.751,6.038-.573,14.306-1.357,14.813-3.1.031-.107.21-1.128-3.126-3.714-8.374-6.5-7.949-12.364-6.947-15.283,1.364-3.985,4.983-6.365,7.692-6.365a41.214,41.214,0,1,1,0,82.429Zm0-79.862c-1.541,0-4.23,1.609-5.262,4.629-1.344,3.921.821,8.333,6.092,12.423,2.066,1.6,4.728,4.014,4.018,6.46-.993,3.417-7.723,4.056-17.036,4.939-11.788,1.117-26.458,2.51-26.458,10.195a38.646,38.646,0,1,0,38.647-38.647Z" transform="translate(-85.175 -342.251)"/></g></g><g transform="translate(187.034 366.07)"><path d="M294.034,391.727V421.6h17.25v3.479H290.174V391.727Z" transform="translate(-290.174 -390.964)"/><path d="M338.1,391.344a3.026,3.026,0,1,1-3.05,3A2.943,2.943,0,0,1,338.1,391.344Zm1.859,33.546h-3.67V401.637h3.67Z" transform="translate(-312.752 -390.772)"/><path d="M363.887,410.715c7.052,0,11.913,4.956,11.913,12.295,0,7.29-4.86,12.294-11.913,12.294s-11.865-5-11.865-12.294C352.022,415.671,356.834,410.715,363.887,410.715Zm0,21.348c4.956,0,8.244-3.669,8.244-9.053,0-5.433-3.288-9.054-8.244-9.054s-8.243,3.764-8.243,9.054C355.644,428.536,358.932,432.063,363.887,432.063Z" transform="translate(-321.291 -400.518)"/><path d="M410.541,411.577v3.907h.477c1.1-2.191,3.43-4.383,8.243-4.383,5.1,0,9.2,3.383,9.2,9.625v14.1h-3.621V420.964c0-4.67-2.525-6.719-6.529-6.719-4.479,0-7.671,3-7.671,8.816v11.77h-3.669V411.577Z" transform="translate(-348.935 -400.711)"/><path d="M458.248,390.192a3.128,3.128,0,0,1,3.241,3.336v3.05c0,3.145-1.716,5-5,5h-.953V399.2h1.048a1.906,1.906,0,0,0,2.191-2.192v-.476H458.2a3.029,3.029,0,0,1-3.193-3.1A3.1,3.1,0,0,1,458.248,390.192Z" transform="translate(-373.106 -390.192)"/><path d="M478.824,410.715c5.241,0,8.577,2.526,9.53,6.815l-3.384.906c-.666-3.432-3-4.766-6.146-4.766-3.193,0-5.194,1.286-5.194,3.621,0,2.24,2,3.193,4.765,3.67l2.382.333c4.766.81,8.386,2.239,8.386,6.814,0,4.527-3.716,7.2-9.387,7.2-5.765,0-10.006-2.622-10.864-8.387l3.478-.81c.763,4.766,3.812,6.242,7.386,6.242s5.813-1.62,5.813-4.05c0-2.335-2-3.288-5.384-3.86l-2.383-.333c-4.384-.716-7.815-2.573-7.815-6.719S473.44,410.715,478.824,410.715Z" transform="translate(-380.102 -400.518)"/><path d="M549.227,391.727l10.2,29.4h.477l10.2-29.4h6.766v33.356h-3.812V395.825h-.476l-10.15,29.258H556.9l-10.15-29.258h-.476v29.258H542.46V391.727Z" transform="translate(-417.105 -390.964)"/><path d="M629.895,410.715c5.909,0,9.435,3.241,9.435,8.721v15.2H635.8V431.3h-.524c-1.049,1.859-3.05,4-7.624,4-4.861,0-8.578-2.622-8.578-7.291,0-4.717,3.717-7.052,8.672-7.052h7.958v-1.716c0-3.336-1.953-5.432-5.813-5.432-3.812,0-5.956,2.1-6.671,5.051l-3.431-1.049C620.889,413.908,624.033,410.715,629.895,410.715Zm-1.715,21.539c4.478,0,7.528-2.907,7.528-7.719v-.572h-7.814c-3,0-5.194,1.382-5.194,4S624.891,432.254,628.18,432.254Z" transform="translate(-455.653 -400.518)"/><path d="M673,411.577v3.907h.476c1.1-2.191,3.431-4.383,8.244-4.383,5.1,0,9.2,3.383,9.2,9.625v14.1H687.29V420.964c0-4.67-2.525-6.719-6.528-6.719-4.479,0-7.672,3-7.672,8.816v11.77h-3.669V411.577Z" transform="translate(-480.982 -400.711)"/><path d="M730.862,410.715c6.576,0,11.2,4.384,11.2,11.484v1.953H722.952c.333,4.766,3.574,7.91,8.244,7.91a7.536,7.536,0,0,0,7.338-4.718l3.145,1.621A10.927,10.927,0,0,1,731.2,435.3c-7.243,0-12.008-5.337-12.008-12.485C719.187,415.814,724.1,410.715,730.862,410.715ZM738.3,421.1c-.238-4.621-3.145-7.147-7.433-7.147-4.385,0-7.339,2.763-7.863,7.147Z" transform="translate(-506.02 -400.518)"/></g></g></svg>