<svg xmlns="http://www.w3.org/2000/svg" width="172.924" height="42.186" viewBox="0 0 172.924 42.186"><g transform="translate(-85.175 -342.247)"><g transform="translate(85.175 342.247)"><g transform="translate(0 0)"><path d="M99.614,379.377a1.113,1.113,0,0,1-.367-.067c-1.08-.372-.9-2.087-.609-4.93.259-2.508.614-5.942-.291-7.35-1.178-1.832-3.885-1.29-6.5-.765-2.234.448-4.344.869-5.632-.185a3.311,3.311,0,0,1-1.036-2.737,21.095,21.095,0,0,1,32.885-17.49c6.219,4.2,9.782,10.921,9.3,17.538a1.457,1.457,0,0,1-.521,1.037c-.879.736-2.662.55-5.13.291-4.44-.464-10.521-1.1-13.4,3.484C102.275,377.8,100.609,379.377,99.614,379.377ZM95.5,364.445a4.316,4.316,0,0,1,3.952,1.873c1.155,1.8.8,5.2.494,8.2a20.307,20.307,0,0,0-.189,3.431c.747-.507,2.668-2.856,7.436-10.442,3.317-5.279,10.14-4.565,14.653-4.092,1.732.181,3.7.387,4.15.008.023-.019.047-.039.053-.125.45-6.147-2.892-12.414-8.722-16.353a19.78,19.78,0,0,0-30.835,16.4,2.125,2.125,0,0,0,.555,1.72c.806.66,2.7.28,4.54-.088A20.735,20.735,0,0,1,95.5,364.445Z" transform="translate(-85.175 -342.25)" fill="#fff"/><path d="M112.232,379.242a2.285,2.285,0,0,1-.885-.169c-2.108-.874-2.028-4.533-1.935-8.769.011-.5.022-1,.029-1.5a20.174,20.174,0,0,1,.276-2.771,11.952,11.952,0,0,0,.149-1.237c.024-.711-.1-.87-.1-.872a3.819,3.819,0,0,0-.824.181,3.525,3.525,0,0,1-2.863-.07,4.676,4.676,0,0,1-1.819-3.176h0a14.238,14.238,0,0,1,2.861-12.258,16.9,16.9,0,0,1,13.1-6.348,20.986,20.986,0,0,1,11.784,3.6c6.132,4.138,9.611,10.69,9.308,17.526-.139,3.123-3.721,3.715-7.87,4.4-4.069.671-8.68,1.433-11.636,4.518C117.258,377.032,114.233,379.242,112.232,379.242Zm-2.5-16.626a1.323,1.323,0,0,1,.849.276,2.3,2.3,0,0,1,.6,1.943,12.629,12.629,0,0,1-.164,1.39,18.694,18.694,0,0,0-.261,2.594c-.007.5-.019,1.011-.029,1.512-.072,3.28-.153,7,1.124,7.527.91.378,3.213-.44,9-6.482,3.26-3.4,8.312-4.236,12.372-4.906,4.141-.684,6.685-1.2,6.772-3.161.283-6.376-2.981-12.5-8.73-16.377a19.674,19.674,0,0,0-11.049-3.372,15.791,15.791,0,0,0-12.072,5.852,12.942,12.942,0,0,0-2.608,11.145,3.61,3.61,0,0,0,1.209,2.34,2.408,2.408,0,0,0,1.837-.065A4.459,4.459,0,0,1,109.736,362.616Z" transform="translate(-99.128 -342.247)" fill="#fff"/><path d="M118.824,379.716a5.582,5.582,0,0,1-2.758-.672c-3.532-1.96-3.894-7.822-3.858-12.06a7.173,7.173,0,0,1,1.675-4.429,3.668,3.668,0,0,1,2.981-1.657h.018c-.185-.394-.464-.95-.795-1.612l-.457-.916a10.168,10.168,0,0,1,.392-10.208,12.719,12.719,0,0,1,10.4-5.911,20.993,20.993,0,0,1,11.775,3.59,20.53,20.53,0,0,1,9.316,17.519c-.136,5.15-5.5,7.077-11.184,9.118a44.657,44.657,0,0,0-8.815,3.892C124,378.606,121.122,379.716,118.824,379.716Zm-1.966-17.5a2.383,2.383,0,0,0-1.938,1.15,5.84,5.84,0,0,0-1.4,3.633c-.051,6.117.989,9.683,3.182,10.9,2.112,1.171,5.512.285,10.109-2.634a45.606,45.606,0,0,1,9.075-4.019c5.475-1.966,10.2-3.665,10.316-7.916a19.225,19.225,0,0,0-8.738-16.395,19.681,19.681,0,0,0-11.04-3.366,11.36,11.36,0,0,0-9.285,5.288,8.9,8.9,0,0,0-.333,8.93l.457.913c1.211,2.419,1.367,2.73,1.029,3.218a1.007,1.007,0,0,1-1.036.322C117.137,362.226,117,362.212,116.858,362.212Z" transform="translate(-105.332 -342.25)" fill="#fff"/><path d="M111.478,381.289a11.684,11.684,0,0,1-7.14-2.229c-3.606-2.69-5.661-7.755-5.638-13.9.009-1.909.979-3.421,2.964-4.625,2.18-1.322,4.969-1.5,7.209-1.642,1.292-.083,3.063-.2,3.243-.616.037-.087.147-.613-1.358-2.417-3.177-3.807-2.36-7.136-1.59-8.782a8.441,8.441,0,0,1,7.186-4.833,21.086,21.086,0,0,1,21.092,21.1c-.119,9.683-11.036,14.211-20.533,17.075A18.867,18.867,0,0,1,111.478,381.289Zm4.875-37.727a7.171,7.171,0,0,0-6,4.075c-1.1,2.353-.6,4.975,1.409,7.383h0c1.472,1.762,1.937,2.892,1.556,3.777-.5,1.162-2.205,1.27-4.366,1.409-2.1.133-4.706.3-6.611,1.455-1.584.959-2.324,2.073-2.331,3.506-.021,5.722,1.841,10.4,5.11,12.84,2.873,2.142,6.819,2.544,11.411,1.159,9.63-2.9,19.489-7.056,19.6-15.833a19.775,19.775,0,0,0-19.779-19.771Z" transform="translate(-95.26 -342.247)" fill="#fff"/><path d="M106.267,384.438a21.116,21.116,0,0,1-21.092-21.092c0-5.129,8.167-5.9,14.73-6.526,3.09-.293,7.321-.695,7.581-1.586.016-.055.108-.577-1.6-1.9-4.285-3.326-4.068-6.328-3.555-7.822a4.659,4.659,0,0,1,3.937-3.257,21.092,21.092,0,1,1,0,42.184Zm0-40.87a3.386,3.386,0,0,0-2.693,2.369c-.688,2.007.42,4.264,3.118,6.358,1.057.82,2.42,2.054,2.056,3.306-.508,1.749-3.953,2.076-8.719,2.528-6.033.572-13.54,1.284-13.54,5.217a19.778,19.778,0,1,0,19.778-19.778Z" transform="translate(-85.175 -342.252)" fill="#fff"/></g></g><g transform="translate(137.303 354.439)"><path d="M292.149,391.727v15.29h8.828V408.8h-10.8v-17.07Z" transform="translate(-290.174 -391.337)" fill="#fff"/><path d="M336.611,391.344a1.548,1.548,0,1,1-1.561,1.536A1.506,1.506,0,0,1,336.611,391.344Zm.951,17.168h-1.878v-11.9h1.878Z" transform="translate(-323.639 -391.051)" fill="#fff"/><path d="M358.094,410.715c3.609,0,6.1,2.536,6.1,6.292a5.9,5.9,0,0,1-6.1,6.291c-3.609,0-6.072-2.561-6.072-6.291C352.022,413.251,354.485,410.715,358.094,410.715Zm0,10.925c2.536,0,4.219-1.878,4.219-4.633,0-2.78-1.683-4.633-4.219-4.633s-4.219,1.926-4.219,4.633C353.875,419.835,355.558,421.64,358.094,421.64Z" transform="translate(-336.295 -405.496)" fill="#fff"/><path d="M408.8,411.344v2h.244c.561-1.121,1.756-2.243,4.219-2.243a4.539,4.539,0,0,1,4.706,4.926v7.218h-1.853v-7.1c0-2.39-1.292-3.438-3.341-3.438-2.292,0-3.926,1.536-3.926,4.512v6.023h-1.878v-11.9Z" transform="translate(-377.268 -405.783)" fill="#fff"/><path d="M456.666,390.192a1.6,1.6,0,0,1,1.658,1.707v1.561a2.314,2.314,0,0,1-2.561,2.561h-.487V394.8h.537a.976.976,0,0,0,1.121-1.122v-.244h-.292a1.55,1.55,0,0,1-1.634-1.585A1.588,1.588,0,0,1,456.666,390.192Z" transform="translate(-413.094 -390.192)" fill="#fff"/><path d="M473.985,410.715c2.682,0,4.389,1.292,4.877,3.487l-1.732.464a2.845,2.845,0,0,0-3.146-2.439c-1.634,0-2.658.658-2.658,1.853,0,1.147,1.024,1.634,2.438,1.878l1.219.171c2.439.415,4.292,1.146,4.292,3.487,0,2.317-1.9,3.682-4.8,3.682-2.95,0-5.121-1.342-5.56-4.292l1.78-.415a3.438,3.438,0,0,0,3.78,3.195c1.829,0,2.975-.829,2.975-2.073,0-1.2-1.024-1.683-2.755-1.975l-1.219-.171c-2.244-.366-4-1.317-4-3.438S471.23,410.715,473.985,410.715Z" transform="translate(-423.463 -405.496)" fill="#fff"/><path d="M545.923,391.727l5.219,15.046h.244l5.219-15.046h3.462V408.8h-1.951V393.824h-.244L552.678,408.8h-2.829l-5.194-14.973h-.244V408.8H542.46v-17.07Z" transform="translate(-478.308 -391.337)" fill="#fff"/><path d="M624.614,410.715c3.024,0,4.829,1.659,4.829,4.463v7.779h-1.8V421.25h-.268a4.041,4.041,0,0,1-3.9,2.049c-2.488,0-4.39-1.342-4.39-3.731,0-2.414,1.9-3.609,4.438-3.609h4.072v-.878c0-1.707-1-2.78-2.975-2.78a3.224,3.224,0,0,0-3.414,2.585l-1.756-.537A4.916,4.916,0,0,1,624.614,410.715Zm-.878,11.023a3.649,3.649,0,0,0,3.853-3.95v-.293h-4c-1.537,0-2.658.707-2.658,2.048S622.053,421.738,623.736,421.738Z" transform="translate(-535.443 -405.496)" fill="#fff"/><path d="M671.25,411.344v2h.244c.561-1.121,1.756-2.243,4.219-2.243a4.539,4.539,0,0,1,4.707,4.926v7.218h-1.853v-7.1c0-2.39-1.292-3.438-3.341-3.438-2.292,0-3.926,1.536-3.926,4.512v6.023h-1.878v-11.9Z" transform="translate(-572.985 -405.783)" fill="#fff"/><path d="M725.162,410.715c3.365,0,5.73,2.244,5.73,5.877v1h-9.779a4.075,4.075,0,0,0,4.219,4.048,3.856,3.856,0,0,0,3.755-2.414l1.609.83a5.592,5.592,0,0,1-5.365,3.243c-3.707,0-6.146-2.731-6.146-6.389A5.89,5.89,0,0,1,725.162,410.715Zm3.8,5.316a3.543,3.543,0,0,0-3.8-3.657,3.858,3.858,0,0,0-4.024,3.657Z" transform="translate(-610.096 -405.496)" fill="#fff"/></g></g></svg>