<?xml version="1.0" encoding="utf-8"?>
<!-- Generator: Adobe Illustrator 25.2.1, SVG Export Plug-In . SVG Version: 6.00 Build 0)  -->
<svg version="1.1" id="Layer_1" xmlns="http://www.w3.org/2000/svg" xmlns:xlink="http://www.w3.org/1999/xlink" x="0px" y="0px"
	 viewBox="0 0 172.9 42.2" style="enable-background:new 0 0 172.9 42.2;" xml:space="preserve">
<style type="text/css">
	.st0{fill:#FFFFFF;}
</style>
<g transform="translate(-85.175 -342.247)">
	<g transform="translate(85.175 342.247)">
		<g transform="translate(0 0)">
			<path class="st0" d="M14.4,37.1c-0.1,0-0.2,0-0.4-0.1c-1.1-0.4-0.9-2.1-0.6-4.9c0.3-2.5,0.6-5.9-0.3-7.4C12,22.9,9.3,23.5,6.7,24
				c-2.2,0.4-4.3,0.9-5.6-0.2c-0.8-0.7-1.1-1.7-1-2.7C0,9.4,9.5,0,21.1,0c4.2,0,8.3,1.3,11.8,3.6c6.2,4.2,9.8,10.9,9.3,17.5
				c0,0.4-0.2,0.8-0.5,1c-0.9,0.7-2.7,0.5-5.1,0.3C32.1,22,26,21.4,23.1,26C17.1,35.5,15.4,37.1,14.4,37.1z M10.3,22.2
				c1.6-0.1,3.1,0.6,4,1.9c1.2,1.8,0.8,5.2,0.5,8.2c-0.2,1.1-0.2,2.3-0.2,3.4c0.7-0.5,2.7-2.9,7.4-10.4c3.3-5.3,10.1-4.6,14.7-4.1
				c1.7,0.2,3.7,0.4,4.2,0c0,0,0,0,0.1-0.1c0.4-6.1-2.9-12.4-8.7-16.4C23.1-1.4,10.8,1,4.7,10c-2.2,3.3-3.4,7.1-3.4,11.1
				c-0.1,0.6,0.1,1.3,0.6,1.7c0.8,0.7,2.7,0.3,4.5-0.1C7.7,22.4,9,22.2,10.3,22.2z"/>
			<path class="st0" d="M13.1,37c-0.3,0-0.6-0.1-0.9-0.2c-2.1-0.9-2-4.5-1.9-8.8c0-0.5,0-1,0-1.5c0-0.9,0.1-1.9,0.3-2.8
				c0.1-0.4,0.1-0.8,0.1-1.2c0-0.7-0.1-0.9-0.1-0.9c-0.3,0-0.6,0.1-0.8,0.2c-0.9,0.4-2,0.4-2.9-0.1c-1-0.8-1.7-1.9-1.8-3.2l0,0
				C4.1,14.3,5.2,9.8,8,6.4c3.2-4,8-6.3,13.1-6.3c4.2,0,8.3,1.2,11.8,3.6c6.1,4.1,9.6,10.7,9.3,17.5c-0.1,3.1-3.7,3.7-7.9,4.4
				c-4.1,0.7-8.7,1.4-11.6,4.5C18.1,34.8,15.1,37,13.1,37z M10.6,20.4c0.3,0,0.6,0.1,0.8,0.3c0.5,0.5,0.7,1.2,0.6,1.9
				c0,0.5-0.1,0.9-0.2,1.4c-0.1,0.9-0.2,1.7-0.3,2.6c0,0.5,0,1,0,1.5c-0.1,3.3-0.2,7,1.1,7.5c0.9,0.4,3.2-0.4,9-6.5
				c3.3-3.4,8.3-4.2,12.4-4.9c4.1-0.7,6.7-1.2,6.8-3.2c0.3-6.4-3-12.5-8.7-16.4c-3.3-2.2-7.1-3.4-11-3.4C16.4,1.4,12,3.5,9,7.2
				c-2.6,3.1-3.5,7.2-2.6,11.1c0.1,0.9,0.5,1.7,1.2,2.3c0.6,0.2,1.3,0.2,1.8-0.1C9.8,20.5,10.2,20.4,10.6,20.4L10.6,20.4z"/>
			<path class="st0" d="M13.5,37.5c-1,0-1.9-0.2-2.8-0.7c-3.5-2-3.9-7.8-3.9-12.1c0-1.6,0.6-3.2,1.7-4.4c0.7-1,1.8-1.6,3-1.7h0
				c-0.2-0.4-0.5-1-0.8-1.6l-0.5-0.9C8.6,12.9,8.7,9,10.7,5.9C13,2.3,16.9,0.1,21.1,0c4.2,0,8.3,1.2,11.8,3.6
				c5.9,3.9,9.4,10.5,9.3,17.5c-0.1,5.1-5.5,7.1-11.2,9.1c-3.1,1-6,2.3-8.8,3.9C18.7,36.4,15.8,37.5,13.5,37.5z M11.5,20
				c-0.8,0-1.5,0.5-1.9,1.1c-0.9,1-1.4,2.3-1.4,3.6c-0.1,6.1,1,9.7,3.2,10.9c2.1,1.2,5.5,0.3,10.1-2.6c2.9-1.7,5.9-3,9.1-4
				c5.5-2,10.2-3.7,10.3-7.9c0.1-6.6-3.2-12.8-8.7-16.4c-3.3-2.2-7.1-3.4-11-3.4c-3.8,0.1-7.3,2.1-9.3,5.3c-1.7,2.7-1.8,6.1-0.3,8.9
				l0.5,0.9c1.2,2.4,1.4,2.7,1,3.2c-0.3,0.3-0.7,0.4-1,0.3C11.8,20,11.7,20,11.5,20L11.5,20z"/>
			<path class="st0" d="M16.2,39c-2.6,0.1-5.1-0.7-7.1-2.2c-3.6-2.7-5.7-7.8-5.6-13.9c0-1.9,1-3.4,3-4.6c2.2-1.3,5-1.5,7.2-1.6
				c1.3-0.1,3.1-0.2,3.2-0.6c0-0.1,0.1-0.6-1.4-2.4c-3.2-3.8-2.4-7.1-1.6-8.8C15.2,2,18,0.2,21.1,0c11.6,0,21.1,9.4,21.1,21.1
				c0,0,0,0,0,0c-0.1,9.7-11,14.2-20.5,17.1C19.9,38.7,18.1,39,16.2,39z M21.1,1.3c-2.6,0.2-4.9,1.7-6,4.1c-1.1,2.4-0.6,5,1.4,7.4
				l0,0c1.5,1.8,1.9,2.9,1.6,3.8c-0.5,1.2-2.2,1.3-4.4,1.4c-2.1,0.1-4.7,0.3-6.6,1.5c-1.6,1-2.3,2.1-2.3,3.5
				c0,5.7,1.8,10.4,5.1,12.8c2.9,2.1,6.8,2.5,11.4,1.2c9.6-2.9,19.5-7.1,19.6-15.8C40.9,10.2,32,1.3,21.1,1.3L21.1,1.3z"/>
			<path class="st0" d="M21.1,42.2C9.4,42.2,0,32.7,0,21.1c0-5.1,8.2-5.9,14.7-6.5c3.1-0.3,7.3-0.7,7.6-1.6c0-0.1,0.1-0.6-1.6-1.9
				c-4.3-3.3-4.1-6.3-3.6-7.8c0.5-1.8,2.1-3.1,3.9-3.3c11.6,0,21.1,9.4,21.1,21.1C42.2,32.7,32.8,42.2,21.1,42.2
				C21.1,42.2,21.1,42.2,21.1,42.2L21.1,42.2z M21.1,1.3c-1.3,0.2-2.3,1.1-2.7,2.4c-0.7,2,0.4,4.3,3.1,6.4c1.1,0.8,2.4,2.1,2.1,3.3
				c-0.5,1.7-4,2.1-8.7,2.5c-6,0.6-13.5,1.3-13.5,5.2c0,10.9,8.9,19.8,19.8,19.8S40.9,32,40.9,21.1S32,1.3,21.1,1.3z"/>
		</g>
	</g>
	<g transform="translate(137.303 354.439)">
		<path class="st0" d="M2,0.4v15.3h8.8v1.8H0V0.4L2,0.4z"/>
		<path class="st0" d="M13,0.3c0.9,0,1.5,0.7,1.5,1.6c0,0.9-0.7,1.5-1.6,1.5c-0.9,0-1.5-0.7-1.5-1.6C11.4,1,12.1,0.3,13,0.3
			C12.9,0.3,12.9,0.3,13,0.3z M13.9,17.5H12V5.6h1.9V17.5z"/>
		<path class="st0" d="M21.8,5.2c3.6,0,6.1,2.5,6.1,6.3c0.2,3.3-2.2,6.1-5.5,6.3c-0.2,0-0.4,0-0.6,0c-3.6,0-6.1-2.6-6.1-6.3
			C15.7,7.8,18.2,5.2,21.8,5.2z M21.8,16.1c2.5,0,4.2-1.9,4.2-4.6c0-2.8-1.7-4.6-4.2-4.6s-4.2,1.9-4.2,4.6
			C17.6,14.3,19.3,16.1,21.8,16.1L21.8,16.1z"/>
		<path class="st0" d="M31.5,5.6v2h0.2c0.6-1.1,1.8-2.2,4.2-2.2c2.5-0.1,4.6,1.8,4.7,4.4c0,0.2,0,0.4,0,0.6v7.2h-1.9v-7.1
			c0-2.4-1.3-3.4-3.3-3.4c-2.3,0-3.9,1.5-3.9,4.5v6h-1.9V5.6L31.5,5.6z"/>
		<path class="st0" d="M43.6,0c0.9,0,1.6,0.7,1.7,1.5c0,0.1,0,0.1,0,0.2v1.6c0.1,1.3-0.8,2.4-2,2.6c-0.2,0-0.3,0-0.5,0h-0.5V4.6h0.5
			c0.5,0.1,1-0.3,1.1-0.8c0-0.1,0-0.2,0-0.3V3.2h-0.3c-0.9,0-1.6-0.6-1.6-1.5c0,0,0-0.1,0-0.1c0-0.9,0.6-1.6,1.5-1.7
			C43.5,0,43.5,0,43.6,0z"/>
		<path class="st0" d="M50.5,5.2c2.7,0,4.4,1.3,4.9,3.5l-1.7,0.5c-0.2-1.5-1.6-2.6-3.1-2.4c-1.6,0-2.7,0.7-2.7,1.9
			c0,1.1,1,1.6,2.4,1.9l1.2,0.2c2.4,0.4,4.3,1.1,4.3,3.5c0,2.3-1.9,3.7-4.8,3.7c-3,0-5.1-1.3-5.6-4.3l1.8-0.4
			c0.1,1.9,1.8,3.3,3.7,3.2c0,0,0.1,0,0.1,0c1.8,0,3-0.8,3-2.1c0-1.2-1-1.7-2.8-2L50,12.1c-2.2-0.4-4-1.3-4-3.4S47.8,5.2,50.5,5.2z"
			/>
		<path class="st0" d="M67.6,0.4l5.2,15h0.2l5.2-15h3.5v17.1h-2v-15h-0.2l-5.2,15h-2.8l-5.2-15h-0.2v15h-2V0.4L67.6,0.4z"/>
		<path class="st0" d="M89.2,5.2c3,0,4.8,1.7,4.8,4.5v7.8h-1.8v-1.7h-0.3c-0.8,1.4-2.3,2.2-3.9,2c-2.5,0-4.4-1.3-4.4-3.7
			c0-2.4,1.9-3.6,4.4-3.6h4.1V9.6c0-1.7-1-2.8-3-2.8c-1.6-0.1-3.1,1-3.4,2.6L84,8.9C84.6,6.6,86.8,5,89.2,5.2z M88.3,16.2
			c2,0.1,3.7-1.4,3.9-3.4c0-0.2,0-0.4,0-0.5V12h-4c-1.5,0-2.7,0.7-2.7,2S86.6,16.2,88.3,16.2z"/>
		<path class="st0" d="M98.3,5.6v2h0.2c0.6-1.1,1.8-2.2,4.2-2.2c2.5-0.1,4.6,1.8,4.7,4.4c0,0.2,0,0.4,0,0.6v7.2h-1.9v-7.1
			c0-2.4-1.3-3.4-3.3-3.4c-2.3,0-3.9,1.5-3.9,4.5v6h-1.9V5.6L98.3,5.6z"/>
		<path class="st0" d="M115.1,5.2c3.4,0,5.7,2.2,5.7,5.9v1H111c0,2.3,1.8,4.1,4.1,4.1c0,0,0.1,0,0.1,0c1.6,0.1,3.1-0.9,3.8-2.4
			l1.6,0.8c-1,2.1-3.1,3.4-5.4,3.2c-3.7,0-6.1-2.7-6.1-6.4c-0.2-3.2,2.3-6,5.6-6.2C114.8,5.2,114.9,5.2,115.1,5.2z M118.9,10.5
			c0.1-2-1.5-3.6-3.4-3.7c-0.1,0-0.3,0-0.4,0c-2.1-0.1-3.9,1.5-4,3.7H118.9z"/>
	</g>
</g>
</svg>
