<svg xmlns="http://www.w3.org/2000/svg" width="149.115" height="35.004" viewBox="0 0 149.115 35.004"><defs><style>.a{fill:#050cbd;}</style></defs><g transform="translate(-140 -30)"><g transform="translate(140 30)"><g transform="translate(0)"><g transform="translate(72.886 7.506)"><path class="a" d="M718.85,748.882v15.963h3.919v-12.31h4.8v-3.653Z" transform="translate(-651.344 -745.251)"/><path class="a" d="M483.673,748.882H474.95v15.963h3.919v-12.31h4.8Z" transform="translate(-461.444 -745.251)"/><path class="a" d="M422.651,732.482h-8.7v3.631h4.8v15.963h3.9V736.113h4.8v-3.631Z" transform="translate(-413.95 -732.482)"/><path class="a" d="M590.768,751.359a2.743,2.743,0,0,1,2.413,1.173,2.994,2.994,0,0,1,.443,1.461h3.72a6.255,6.255,0,0,0-1.218-3.432,6.824,6.824,0,0,0-5.38-2.48,7.158,7.158,0,0,0-5.469,2.48,10.458,10.458,0,0,0,0,11.513,7.158,7.158,0,0,0,5.469,2.48,6.892,6.892,0,0,0,5.38-2.48,6.133,6.133,0,0,0,1.218-3.432h-3.72a3.247,3.247,0,0,1-.443,1.461,2.8,2.8,0,0,1-2.413,1.173,3.154,3.154,0,0,1-2.3-1,5.774,5.774,0,0,1-1.063-3.963,5.928,5.928,0,0,1,1.063-4.007A3.091,3.091,0,0,1,590.768,751.359Z" transform="translate(-546 -744.628)"/><path class="a" d="M655.956,748.082a6.877,6.877,0,0,0-5.026,1.993,8.883,8.883,0,0,0-2.28,6.288,8.51,8.51,0,0,0,2.413,6.288,6.892,6.892,0,0,0,4.959,1.948,6.747,6.747,0,0,0,5.292-2.214,6.315,6.315,0,0,0,1.328-2.9h-3.609a2.875,2.875,0,0,1-.753,1.328,2.932,2.932,0,0,1-2.3.753,3.325,3.325,0,0,1-2.325-.974,4.229,4.229,0,0,1-1.151-3.1h10.539c0-.332.022-1.063.022-1.063a8.84,8.84,0,0,0-1.373-5.491A6.715,6.715,0,0,0,655.956,748.082Zm-3.476,6.708a3.823,3.823,0,0,1,.819-2.458,3.233,3.233,0,0,1,2.635-1.218,3.129,3.129,0,0,1,2.391.908,4.2,4.2,0,0,1,.974,2.745H652.48Z" transform="translate(-596.686 -744.628)"/><path class="a" d="M527.688,758.986h0l.022-4.428a8.525,8.525,0,0,0-.465-3.166c-.908-2.369-3.21-3.21-5.889-3.21-3.52,0-6.332,1.572-6.531,5.114h3.653c.089-1.461,1.129-2.236,2.878-2.236,2.148,0,2.657,1,2.657,2.48v.974l-4.627.332c-2.989.221-5.336,1.948-5.336,4.937,0,2.568,1.948,4.937,5.69,4.937a5.477,5.477,0,0,0,4.782-2.369v2.125h4.539v-2.723h-1.373Zm-3.7-.952c0,2.325-1.661,3.609-4.03,3.609a2.083,2.083,0,0,1-2.236-1.97,2.2,2.2,0,0,1,2.258-2.059l3.985-.31v.731Z" transform="translate(-491.887 -744.706)"/></g><path class="a" d="M269.86,698.582,239.55,716.1l30.31,17.491V729L247.521,716.1l22.34-12.908Z" transform="translate(-205.277 -698.582)"/><rect class="a" width="3.985" height="35.004" transform="translate(30.31)"/><path class="a" d="M84.75,703.187,107.09,716.1,84.75,729v4.583L115.06,716.1,84.75,698.582Z" transform="translate(-84.75 -698.582)"/></g></g></g></svg>