<svg xmlns="http://www.w3.org/2000/svg" width="168.398" height="121.811" viewBox="0 0 168.398 121.811"><defs><style>.a,.b{fill:none;stroke:#fff;}.a{stroke-miterlimit:10;stroke-width:5.153px;}.b{stroke-linejoin:round;stroke-width:1.2px;}</style></defs><g transform="translate(2.577 2.577)"><path class="a" d="M860.648,511.381h60.186a9.313,9.313,0,0,0,7.119-3.1c2.5-2.495,8.492-8.435,8.492-8.435h82.046c3.638,0,5.4,1.85,5.4,5.378v99.562H860.652Z" transform="translate(-860.648 -488.129)"/><path class="a" d="M936.383,499.88l-8.892,8.894c-2.066,2.066-5.509,2.825-8.148,2.825h-58.7V493.669c0-3.786,1.723-5.508,5.251-5.508h53.444c2.64,0,6.082.761,8.148,2.827Z" transform="translate(-860.648 -488.161)"/><g transform="translate(17.699 41.275)"><path class="b" d="M878.3,539.285v35.864h33.519V529.325H888.231Z" transform="translate(-878.299 -529.325)"/><path class="b" d="M878.3,539.285l9.956-9.956v9.956Z" transform="translate(-878.299 -529.325)"/></g><g transform="translate(65.205 41.275)"><path class="b" d="M925.677,539.285v35.864H959.2V529.325H935.61Z" transform="translate(-925.677 -529.325)"/><path class="b" d="M925.677,539.285l9.956-9.956v9.956Z" transform="translate(-925.677 -529.325)"/></g><g transform="translate(112.023 41.275)"><path class="b" d="M972.369,539.285v35.864h33.521V529.325H982.3Z" transform="translate(-972.369 -529.325)"/><path class="b" d="M972.369,539.285l9.956-9.956v9.956Z" transform="translate(-972.369 -529.325)"/></g></g></svg>