<?xml version="1.0" encoding="utf-8"?>
<!-- Generator: Adobe Illustrator 25.2.1, SVG Export Plug-In . SVG Version: 6.00 Build 0)  -->
<svg version="1.1" id="Layer_1" xmlns="http://www.w3.org/2000/svg" xmlns:xlink="http://www.w3.org/1999/xlink" x="0px" y="0px"
	 viewBox="0 0 260 246" style="enable-background:new 0 0 260 246;" xml:space="preserve">
<style type="text/css">
	.st0{fill:none;}
	.st1{fill:#FFFFFF;}
	.st2{fill:#FFFFFF;stroke:#FFFFFF;stroke-width:1.8;stroke-miterlimit:10;}
	.st3{fill:none;stroke:#FFFFFF;stroke-width:1.2;stroke-miterlimit:10;}
	.st4{enable-background:new    ;}
</style>
<g id="Group_189">
	<g id="Component_4_1">
		<g id="Rectangle_131-3">
			<path class="st0" d="M10,0h240c5.5,0,10,4.5,10,10v226c0,5.5-4.5,10-10,10H10c-5.5,0-10-4.5-10-10V10C0,4.5,4.5,0,10,0z"/>
		</g>
	</g>
	<g id="Group_103">
		<g id="Group_92">
			<g id="Path_74">
				<path id="Path_81" class="st1" d="M129.5,38.5L73.7,70.8v64.5l55.9,32.2l55.9-32.3V70.8L129.5,38.5 M129.5,33.1l60.6,35V138
					l-60.6,35L69,138V68.1L129.5,33.1z"/>
			</g>
			<circle id="Ellipse_21" class="st2" cx="129.5" cy="33.1" r="5.8"/>
			<circle id="Ellipse_22" class="st2" cx="129.5" cy="103" r="5.8"/>
			<circle id="Ellipse_23" class="st2" cx="69" cy="68.1" r="5.8"/>
			<circle id="Ellipse_24" class="st2" cx="69" cy="138.4" r="5.8"/>
			<circle id="Ellipse_25" class="st2" cx="129.5" cy="173" r="5.8"/>
			<circle id="Ellipse_26" class="st2" cx="190.1" cy="138" r="5.8"/>
			<circle id="Ellipse_27" class="st2" cx="190.1" cy="68.1" r="5.8"/>
			<line id="Line_29" class="st3" x1="69" y1="68.1" x2="190.1" y2="138"/>
			<line id="Line_30" class="st3" x1="190.1" y1="68.1" x2="69" y2="138"/>
			<line id="Line_31" class="st3" x1="129.5" y1="33.1" x2="129.5" y2="173"/>
			<line id="Line_32" class="st3" x1="190.1" y1="68.1" x2="69" y2="68.1"/>
			<line id="Line_33" class="st3" x1="69" y1="138" x2="190.1" y2="138"/>
			<line id="Line_34" class="st3" x1="69" y1="68.1" x2="129.5" y2="173"/>
			<line id="Line_35" class="st3" x1="190.1" y1="138" x2="129.5" y2="33.1"/>
			<line id="Line_36" class="st3" x1="69" y1="138" x2="129.5" y2="33.1"/>
			<line id="Line_37" class="st3" x1="190.1" y1="68.1" x2="129.5" y2="173"/>
		</g>
	</g>
	<g id="DAO">
		<g class="st4">
			<path class="st1" d="M181.8,205c0,2.9-0.7,5-2,6.2c-1.1,1-2.5,1.6-4.1,1.6h-5.4v-15.6h5.4c1.6,0,3,0.5,4.1,1.6
				C181.2,200,181.8,202.1,181.8,205z M179.8,205c0-1.1-0.1-2-0.3-2.8c-0.2-0.8-0.5-1.5-1.1-2.1c-0.7-0.7-1.6-1.1-2.8-1.1h-3.5v12
				h3.5c1.1,0,2.1-0.4,2.8-1.1C179.4,209,179.8,207.3,179.8,205z"/>
			<path class="st1" d="M196,212.8h-2l-1.3-3.7H186l-1.3,3.7h-2l5.5-15.6h2.3L196,212.8z M192.1,207.2l-2.8-8.1l-2.8,8.1H192.1z"/>
			<path class="st1" d="M208.9,201.3c0.3,1,0.4,2.3,0.4,3.7s-0.1,2.7-0.4,3.7c-0.3,1-0.8,1.9-1.6,2.7c-1.1,1.1-2.5,1.7-4.2,1.7
				c-1.7,0-3.1-0.6-4.2-1.7c-0.8-0.8-1.3-1.7-1.6-2.7c-0.3-1-0.4-2.3-0.4-3.7s0.1-2.7,0.4-3.7c0.3-1,0.8-1.9,1.6-2.7
				c1.1-1.1,2.5-1.7,4.2-1.7c1.7,0,3.1,0.6,4.2,1.7C208.1,199.3,208.6,200.2,208.9,201.3z M207.3,206.8c0-0.5,0.1-1.1,0.1-1.8
				s0-1.3-0.1-1.8c0-0.5-0.2-1-0.4-1.7c-0.2-0.6-0.5-1.2-0.9-1.6c-0.7-0.8-1.7-1.2-2.8-1.2c-1.1,0-2.1,0.4-2.8,1.2
				c-0.4,0.4-0.7,0.9-0.9,1.6c-0.2,0.6-0.3,1.2-0.4,1.7c0,0.5-0.1,1.1-0.1,1.8s0,1.3,0.1,1.8c0,0.5,0.2,1,0.4,1.7
				c0.2,0.6,0.5,1.2,0.9,1.6c0.7,0.8,1.7,1.2,2.8,1.2c1.1,0,2.1-0.4,2.8-1.2c0.4-0.4,0.7-0.9,0.9-1.6
				C207.1,207.8,207.2,207.2,207.3,206.8z"/>
		</g>
	</g>
	<g id="Group_191">
		<g id="Group_8-3">
			<g id="Group_5-3">
				<g id="Group_3-3">
					<path id="Path_9-3" class="st1" d="M156,200.4v12.4h3.1v-9.6h3.7v-2.8H156z"/>
					<path id="Path_10-3" class="st1" d="M120.8,200.4H114v12.4h3v-9.6h3.7L120.8,200.4z"/>
					<path id="Path_11-3" class="st1" d="M110.3,197.6h-6.8v2.8h3.7v12.4h3v-12.4h3.7v-2.8H110.3z"/>
					<path id="Path_12-3" class="st1" d="M138.3,202.8c0.7,0,1.5,0.3,1.9,0.9c0.2,0.3,0.3,0.7,0.3,1.1h2.9c0-1-0.4-1.9-0.9-2.7
						c-1-1.2-2.6-2-4.2-1.9c-1.6,0-3.2,0.7-4.2,1.9c-1.8,2.7-1.8,6.2,0,8.9c1.1,1.2,2.6,1.9,4.2,1.9c1.6,0,3.2-0.7,4.2-1.9
						c0.6-0.8,0.9-1.7,0.9-2.7h-2.9c0,0.4-0.1,0.8-0.3,1.1c-0.4,0.6-1.1,1-1.9,0.9c-0.7,0-1.3-0.3-1.8-0.8c-0.6-0.9-0.9-2-0.8-3.1
						c-0.1-1.1,0.2-2.2,0.8-3.1C137,203.1,137.7,202.8,138.3,202.8z"/>
					<path id="Path_13-3" class="st1" d="M149.6,200.3c-1.5,0-2.9,0.5-3.9,1.6c-1.2,1.3-1.8,3.1-1.8,4.9c-0.1,1.8,0.6,3.6,1.9,4.9
						c1,1,2.4,1.5,3.9,1.5c1.6,0.1,3.1-0.6,4.1-1.7c0.5-0.7,0.9-1.4,1-2.3H152c-0.1,0.4-0.3,0.7-0.6,1c-0.5,0.4-1.1,0.7-1.8,0.6
						c-0.7,0-1.3-0.3-1.8-0.8c-0.6-0.6-0.9-1.5-0.9-2.4h8.2c0-0.2,0-0.8,0-0.8c0.1-1.5-0.3-3-1.1-4.3
						C153,201,151.4,200.2,149.6,200.3z M146.9,205.5c0-0.7,0.2-1.4,0.6-1.9c0.5-0.6,1.2-1,2-1c0.7,0,1.4,0.2,1.9,0.7
						c0.5,0.6,0.8,1.4,0.8,2.1L146.9,205.5L146.9,205.5z"/>
					<path id="Path_14-3" class="st1" d="M131.4,208.7L131.4,208.7v-3.4c0-0.8-0.1-1.7-0.4-2.5c-0.7-1.8-2.5-2.5-4.6-2.5
						c-2.7,0-4.9,1.2-5.1,4h2.8c0.1-1.1,0.9-1.7,2.2-1.7c1.7,0,2.1,0.8,2.1,1.9v0.8l-3.6,0.3c-2.3,0.2-4.2,1.5-4.2,3.8
						c0,2,1.5,3.8,4.4,3.8c1.5,0.1,2.9-0.6,3.7-1.8v1.7h3.5v-2.1h-1.1L131.4,208.7z M128.5,207.9c0,1.8-1.3,2.8-3.1,2.8
						c-0.9,0.1-1.7-0.6-1.7-1.5l0,0c0.1-0.9,0.8-1.6,1.8-1.6l3.1-0.2V207.9L128.5,207.9z"/>
				</g>
				<g id="Group_4-3">
					<path id="Path_15-3" class="st1" d="M97.1,191.8l-23.5,13.6L97.1,219v-3.6l-17.4-10l17.4-10V191.8z"/>
					<rect id="Rectangle_2-3" x="70.5" y="191.8" class="st1" width="3.1" height="27.2"/>
					<path id="Path_16-3" class="st1" d="M46.9,195.3l17.4,10l-17.4,10v3.7l23.6-13.6l-23.6-13.7V195.3z"/>
				</g>
			</g>
		</g>
	</g>
</g>
</svg>
