<?xml version="1.0" encoding="utf-8"?>
<!-- Generator: Adobe Illustrator 25.2.1, SVG Export Plug-In . SVG Version: 6.00 Build 0)  -->
<svg version="1.1" id="Layer_1" xmlns="http://www.w3.org/2000/svg" xmlns:xlink="http://www.w3.org/1999/xlink" x="0px" y="0px"
	 viewBox="0 0 260 246" style="enable-background:new 0 0 260 246;" xml:space="preserve">
<style type="text/css">
	.st0{fill:none;}
	.st1{fill:none;stroke:#FFFFFF;stroke-width:5.15;stroke-miterlimit:10;}
	.st2{fill:none;stroke:#FFFFFF;stroke-width:1.2;stroke-linejoin:round;}
	.st3{fill:#FFFFFF;}
	.st4{font-family:'ArialMT';}
	.st5{font-size:22px;}
</style>
<g id="Group_189">
	<g id="Component_4_2">
		<g id="Rectangle_131-2">
			<path class="st0" d="M10,0h240c5.5,0,10,4.5,10,10v226c0,5.5-4.5,10-10,10H10c-5.5,0-10-4.5-10-10V10C0,4.5,4.5,0,10,0z"/>
			<path class="st0" d="M10,1h240c5,0,9,4,9,9v226c0,5-4,9-9,9H10c-5,0-9-4-9-9V10C1,5,5,1,10,1z"/>
		</g>
	</g>
	<g id="Group_103">
		<g id="Group_91">
			<g id="Group_87">
				<path id="Path_62" class="st1" d="M50.8,65.1H111c2.7,0.1,5.3-1.1,7.1-3.1l8.5-8.4h82.1c3.6,0,5.4,1.8,5.4,5.4v99.6H50.8
					L50.8,65.1z"/>
				<path id="Path_63" class="st1" d="M126.5,53.5l-8.9,8.9c-2.1,2.1-5.5,2.8-8.2,2.8H50.8V47.3c0-3.8,1.7-5.5,5.2-5.5h53.4
					c2.6,0,6.1,0.8,8.2,2.8L126.5,53.5z"/>
			</g>
			<g id="Group_88">
				<path id="Path_64" class="st2" d="M68.5,93v35.9H102V83.1H78.4L68.5,93z"/>
				<path id="Path_65" class="st2" d="M68.5,93l10-10v10H68.5z"/>
			</g>
			<g id="Group_89">
				<path id="Path_66" class="st2" d="M116,93v35.9h33.5V83.1h-23.6L116,93z"/>
				<path id="Path_67" class="st2" d="M116,93l10-10v10H116z"/>
			</g>
			<g id="Group_90">
				<path id="Path_68" class="st2" d="M162.8,93v35.9h33.5V83.1h-23.6L162.8,93z"/>
				<path id="Path_69" class="st2" d="M162.8,93l10-10v10H162.8z"/>
			</g>
		</g>
	</g>
	<g id="Factory">
		<text transform="matrix(1 0 0 1 149 212.76)" class="st3 st4 st5">Factory</text>
	</g>
	<g id="Group_190">
		<g id="Group_8-2">
			<g id="Group_5-2">
				<g id="Group_3-2">
					<path id="Path_9-2" class="st3" d="M136.9,200.4v12.4h3.1v-9.6h3.7v-2.8H136.9z"/>
					<path id="Path_10-2" class="st3" d="M101.7,200.4H95v12.4h3v-9.6h3.7V200.4z"/>
					<path id="Path_11-2" class="st3" d="M91.2,197.6h-6.8v2.8h3.7v12.4h3v-12.4H95v-2.8H91.2z"/>
					<path id="Path_12-2" class="st3" d="M119.2,202.8c0.7,0,1.5,0.3,1.9,0.9c0.2,0.3,0.3,0.7,0.3,1.1h2.9c0-1-0.4-1.9-0.9-2.7
						c-1-1.3-2.6-2-4.2-1.9c-1.6,0-3.2,0.7-4.2,1.9c-1.8,2.7-1.8,6.2,0,8.9c1.1,1.2,2.6,1.9,4.2,1.9c1.6,0,3.1-0.7,4.2-1.9
						c0.6-0.8,0.9-1.7,0.9-2.7h-2.9c0,0.4-0.1,0.8-0.3,1.1c-0.4,0.6-1.1,1-1.9,0.9c-0.7,0-1.3-0.3-1.8-0.8c-0.6-0.9-0.9-2-0.8-3.1
						c-0.1-1.1,0.2-2.2,0.8-3.1C117.9,203.1,118.6,202.8,119.2,202.8z"/>
					<path id="Path_13-2" class="st3" d="M130.5,200.3c-1.5,0-2.9,0.5-3.9,1.6c-1.2,1.3-1.8,3.1-1.8,4.9c-0.1,1.8,0.6,3.6,1.9,4.9
						c1,1,2.4,1.5,3.9,1.5c1.6,0.1,3.1-0.6,4.1-1.7c0.5-0.7,0.9-1.4,1-2.3h-2.8c-0.3,1.1-1.3,1.8-2.4,1.6c-0.7,0-1.3-0.3-1.8-0.8
						c-0.6-0.6-0.9-1.5-0.9-2.4h8.2c0-0.2,0-0.8,0-0.8c0.1-1.5-0.3-3-1.1-4.3C133.9,201.1,132.3,200.2,130.5,200.3z M127.8,205.5
						c0-0.7,0.2-1.4,0.6-1.9c0.5-0.6,1.2-1,2-1c0.7,0,1.4,0.2,1.9,0.7c0.5,0.6,0.8,1.4,0.8,2.1L127.8,205.5L127.8,205.5z"/>
					<path id="Path_14-2" class="st3" d="M112.3,208.7L112.3,208.7v-3.4c0-0.8-0.1-1.7-0.4-2.5c-0.7-1.8-2.5-2.5-4.6-2.5
						c-2.7,0-4.9,1.2-5.1,4h2.8c0.1-1.1,0.9-1.7,2.2-1.7c1.7,0,2.1,0.8,2.1,1.9v0.8l-3.6,0.3c-2.3,0.2-4.2,1.5-4.2,3.8
						c0,2,1.5,3.8,4.4,3.8c1.5,0.1,2.9-0.6,3.7-1.8v1.7h3.5v-2.1h-1.1L112.3,208.7z M109.4,208c0,1.8-1.3,2.8-3.1,2.8
						c-0.9,0.1-1.7-0.6-1.7-1.5l0,0c0.1-0.9,0.8-1.6,1.8-1.6l3.1-0.2L109.4,208L109.4,208z"/>
				</g>
				<g id="Group_4-2">
					<path id="Path_15-2" class="st3" d="M78,191.8l-23.5,13.6L78,219v-3.6l-17.4-10l17.4-10V191.8z"/>
					<rect id="Rectangle_2-2" x="51.4" y="191.8" class="st3" width="3.1" height="27.2"/>
					<path id="Path_16-2" class="st3" d="M27.8,195.3l17.4,10l-17.4,10v3.7l23.5-13.6l-23.5-13.7V195.3z"/>
				</g>
			</g>
		</g>
	</g>
</g>
</svg>
