<?xml version="1.0" encoding="utf-8"?>
<!-- Generator: Adobe Illustrator 25.2.1, SVG Export Plug-In . SVG Version: 6.00 Build 0)  -->
<svg version="1.1" id="Layer_1" xmlns="http://www.w3.org/2000/svg" xmlns:xlink="http://www.w3.org/1999/xlink" x="0px" y="0px"
	 viewBox="0 0 260 246" style="enable-background:new 0 0 260 246;" xml:space="preserve">
<style type="text/css">
	.st0{enable-background:new    ;}
	.st1{fill:none;}
	.st2{fill:none;stroke:#FFFFFF;stroke-width:5.15;stroke-miterlimit:10;}
	.st3{fill:none;stroke:#FFFFFF;stroke-width:3.67;stroke-linejoin:round;}
	.st4{fill:#FFFFFF;}
</style>
<g id="Group_189">
	<g id="Component_2_95">
		<g id="_">
			<g class="st0">
				<path d="M180.7,19.8v-0.2h-0.6v-0.1h0.6v-0.2l0.2,0.2L180.7,19.8z"/>
			</g>
		</g>
		<g id="Component_4_3">
			<g id="Rectangle_131">
				<path class="st1" d="M10,0h240c5.5,0,10,4.5,10,10v226c0,5.5-4.5,10-10,10H10c-5.5,0-10-4.5-10-10V10C0,4.5,4.5,0,10,0z"/>
			</g>
		</g>
	</g>
	<g id="Group_103">
		<g id="Group_96">
			<g id="Group_95">
				<g id="Group_93">
					<circle id="Ellipse_29" class="st2" cx="129.4" cy="103" r="68.8"/>
				</g>
				<g id="Group_94">
					<path id="Path_75" class="st3" d="M100.4,81v61h57V64.1h-40.1L100.4,81z"/>
					<path id="Path_76" class="st3" d="M100.4,81l16.9-16.9V81H100.4z"/>
				</g>
			</g>
		</g>
	</g>
	<g id="Perpetuals_">
		<g class="st0">
			<path class="st4" d="M151.5,201.9c0,1.5-0.4,2.7-1.3,3.5c-0.9,0.9-2.1,1.3-3.8,1.3h-3.8v6h-2v-15.6h5.8c1.8,0,3.1,0.5,4,1.4
				C151.1,199.4,151.5,200.5,151.5,201.9z M149.5,201.9c0-1-0.3-1.7-0.8-2.2s-1.3-0.7-2.3-0.7h-3.8v6h3.8
				C148.4,204.9,149.5,203.9,149.5,201.9z"/>
			<path class="st4" d="M162.7,206.7l0,1.1h-7.9c0,1.1,0.4,2.1,1.1,2.8c0.5,0.5,1.2,0.8,2,0.8c0.9,0,1.6-0.2,2.1-0.7
				c0.3-0.3,0.5-0.7,0.7-1.2h1.8c-0.2,1.2-0.7,2.1-1.7,2.8c-0.8,0.6-1.8,0.8-2.8,0.8c-1.5,0-2.8-0.6-3.7-1.7
				c-0.9-1.1-1.4-2.4-1.4-4.1c0-1.4,0.3-2.6,0.9-3.6c0.4-0.7,1-1.3,1.7-1.7c0.7-0.4,1.6-0.6,2.5-0.6c1.4,0,2.5,0.5,3.4,1.4
				C162.3,203.8,162.8,205.1,162.7,206.7z M160.8,206.2c0-0.9-0.2-1.7-0.7-2.3c-0.5-0.7-1.2-1-2.2-1c-1,0-1.7,0.3-2.2,1
				c-0.5,0.6-0.8,1.4-0.8,2.3H160.8z"/>
			<path class="st4" d="M171.5,203.5c-0.3-0.1-0.6-0.1-1-0.1c-0.8,0-1.5,0.3-2.1,0.9c-0.7,0.6-1,1.8-1,3.6v5h-1.8v-11.1h1.7l0.2,2
				c0.3-0.7,0.7-1.2,1.3-1.5s1.3-0.5,2-0.5c0.3,0,0.6,0,0.9,0.1V203.5z"/>
			<path class="st4" d="M183.3,207.2c0,2.1-0.6,3.7-1.7,4.8c-0.8,0.7-1.8,1.1-3.1,1.1c-0.6,0-1.3-0.1-1.9-0.4
				c-0.6-0.3-1.1-0.7-1.4-1.2v6.1h-1.9v-15.9h1.7l0.1,1.5c0.3-0.5,0.8-1,1.4-1.3c0.6-0.3,1.3-0.5,1.9-0.5c1.3,0,2.4,0.4,3.1,1.2
				C182.8,203.7,183.3,205.2,183.3,207.2z M180.7,210.3c0.5-0.8,0.7-1.8,0.7-3c0-1.2-0.2-2.2-0.7-3c-0.5-0.8-1.3-1.2-2.4-1.2
				c-0.7,0-1.3,0.2-1.8,0.7c-0.8,0.7-1.2,1.9-1.2,3.5s0.4,2.8,1.2,3.5c0.5,0.5,1.1,0.7,1.8,0.7C179.4,211.5,180.2,211.1,180.7,210.3
				z"/>
			<path class="st4" d="M195.1,206.7l0,1.1h-7.9c0,1.1,0.4,2.1,1.1,2.8c0.5,0.5,1.2,0.8,2,0.8c0.9,0,1.6-0.2,2.1-0.7
				c0.3-0.3,0.5-0.7,0.7-1.2h1.8c-0.2,1.2-0.7,2.1-1.7,2.8c-0.8,0.6-1.8,0.8-2.8,0.8c-1.5,0-2.8-0.6-3.7-1.7
				c-0.9-1.1-1.4-2.4-1.4-4.1c0-1.4,0.3-2.6,0.9-3.6c0.4-0.7,1-1.3,1.7-1.7c0.7-0.4,1.6-0.6,2.5-0.6c1.4,0,2.5,0.5,3.4,1.4
				C194.6,203.8,195.1,205.1,195.1,206.7z M193.2,206.2c0-0.9-0.2-1.7-0.7-2.3c-0.5-0.7-1.2-1-2.2-1s-1.7,0.3-2.2,1
				c-0.5,0.6-0.8,1.4-0.8,2.3H193.2z"/>
			<path class="st4" d="M203.6,212.6c-0.8,0.2-1.5,0.3-2.2,0.3c-1.1,0-1.9-0.3-2.4-0.9c-0.5-0.6-0.7-1.3-0.7-2.2v-6.7h-2.2v-1.6h2.2
				v-2.8l1.9-0.4v3.3h3.3v1.6h-3.3v6.4c0,0.5,0.1,0.9,0.4,1.2c0.2,0.2,0.6,0.4,1.1,0.4c0.2,0,0.5,0,0.8-0.1c0.3,0,0.6-0.1,0.8-0.1
				l0.3,0V212.6z"/>
			<path class="st4" d="M214.5,212.8h-1.6l-0.2-1.7c-0.3,0.6-0.7,1.1-1.3,1.4s-1.3,0.5-2,0.5c-1.2,0-2.2-0.4-2.8-1.1
				c-0.6-0.7-1-1.7-1-3v-7.3h1.9v7c0,0.9,0.2,1.5,0.5,2c0.4,0.4,1,0.7,1.8,0.7c0.7,0,1.3-0.3,1.8-0.8c0.6-0.6,0.9-1.7,0.9-3.1v-5.8
				h1.9V212.8z"/>
			<path class="st4" d="M227.5,212.6c-0.4,0.2-0.8,0.3-1.2,0.3c-0.5,0-0.9-0.2-1.2-0.5c-0.3-0.3-0.4-0.7-0.4-1.2h0
				c-0.3,0.6-0.8,1-1.5,1.3c-0.6,0.3-1.4,0.5-2.1,0.5c-1.2,0-2.1-0.3-2.8-1c-0.7-0.7-1-1.5-1-2.4c0-0.5,0.1-1,0.3-1.5
				c0.2-0.5,0.6-0.9,1.3-1.3c0.6-0.4,1.4-0.6,2.4-0.7l3.4-0.2v-0.8c0-0.8-0.2-1.3-0.6-1.7c-0.4-0.4-1-0.6-1.8-0.6
				c-0.9,0-1.6,0.2-2,0.7c-0.4,0.4-0.5,0.8-0.5,1.3h-1.8c0-0.9,0.3-1.7,1-2.3c0.7-0.8,1.9-1.2,3.4-1.2c2,0,3.3,0.7,3.9,2.1
				c0.2,0.5,0.3,1.1,0.3,1.7v5.4c0,0.5,0.2,0.7,0.6,0.7l0.5-0.1V212.6z M224.6,208.1v-0.7l-3,0.2c-0.7,0-1.2,0.2-1.7,0.6
				c-0.5,0.3-0.7,0.8-0.7,1.5c0,0.5,0.2,1,0.5,1.4c0.4,0.4,0.9,0.5,1.7,0.5c0.9,0,1.7-0.3,2.3-0.9
				C224.2,209.9,224.6,209.1,224.6,208.1z"/>
			<path class="st4" d="M233.6,212.8c-0.3,0.1-0.7,0.1-1.3,0.1c-1.6,0-2.3-0.9-2.3-2.7v-13.3h1.9v13.2c0,0.4,0.1,0.7,0.2,0.9
				s0.4,0.3,0.8,0.3l0.8,0V212.8z"/>
			<path class="st4" d="M244.3,209.5c0,0.9-0.3,1.7-0.9,2.3c-0.8,0.8-2,1.3-3.6,1.3c-1.6,0-2.8-0.4-3.6-1.3
				c-0.7-0.7-1.1-1.5-1.1-2.6h1.9c0,0.7,0.3,1.3,0.9,1.7c0.5,0.3,1.1,0.5,2,0.5s1.6-0.2,2-0.6c0.4-0.3,0.6-0.7,0.6-1.2
				c0-0.9-0.6-1.4-1.7-1.6c-0.1,0-0.5-0.1-1.1-0.1c-0.6-0.1-1.1-0.1-1.4-0.2c-0.9-0.1-1.5-0.5-2-1c-0.5-0.5-0.7-1.2-0.7-2
				s0.3-1.6,0.9-2.2c0.8-0.8,1.9-1.2,3.3-1.2c1.6,0,2.8,0.5,3.5,1.4c0.5,0.6,0.8,1.4,0.8,2.1h-1.9c0-0.6-0.2-1-0.6-1.4
				c-0.4-0.4-1-0.6-1.8-0.6c-0.5,0-0.9,0.1-1.3,0.2c-0.7,0.3-1.1,0.8-1.1,1.5c0,0.8,0.5,1.3,1.5,1.5c0.1,0,0.4,0,0.7,0.1
				c0.3,0,0.6,0.1,1,0.1s0.7,0.1,1,0.2c0.8,0.1,1.5,0.5,2,1C244,208,244.3,208.7,244.3,209.5z"/>
		</g>
	</g>
	<g id="Group_104">
		<g id="Group_8">
			<g id="Group_5">
				<g id="Group_3">
					<path id="Path_9" class="st4" d="M126.3,200.4v12.4h3.1v-9.6h3.7v-2.8H126.3z"/>
					<path id="Path_10" class="st4" d="M91.1,200.4h-6.8v12.4h3.1v-9.6h3.7V200.4z"/>
					<path id="Path_11" class="st4" d="M80.6,197.6h-6.8v2.8h3.7v12.4h3v-12.4h3.7v-2.8H80.6z"/>
					<path id="Path_12" class="st4" d="M108.6,202.8c0.7,0,1.5,0.3,1.9,0.9c0.2,0.3,0.3,0.7,0.3,1.1h2.9c0-1-0.4-1.9-0.9-2.7
						c-1-1.2-2.6-2-4.2-1.9c-1.6,0-3.2,0.7-4.2,1.9c-1.8,2.7-1.8,6.2,0,8.9c1.1,1.2,2.6,1.9,4.2,1.9c1.6,0,3.1-0.7,4.2-1.9
						c0.6-0.8,0.9-1.7,0.9-2.7h-2.9c0,0.4-0.1,0.8-0.3,1.1c-0.4,0.6-1.1,1-1.9,0.9c-0.7,0-1.3-0.3-1.8-0.8c-0.6-0.9-0.9-2-0.8-3.1
						c-0.1-1.1,0.2-2.2,0.8-3.1C107.3,203.1,107.9,202.8,108.6,202.8z"/>
					<path id="Path_13" class="st4" d="M119.9,200.3c-1.5,0-2.9,0.5-3.9,1.6c-1.2,1.3-1.8,3.1-1.8,4.9c-0.1,1.8,0.6,3.6,1.9,4.9
						c1,1,2.4,1.5,3.8,1.5c1.6,0.1,3.1-0.6,4.1-1.7c0.5-0.7,0.9-1.4,1-2.3h-2.8c-0.1,0.4-0.3,0.7-0.6,1c-0.5,0.4-1.1,0.7-1.8,0.6
						c-0.7,0-1.3-0.3-1.8-0.8c-0.6-0.6-0.9-1.5-0.9-2.4h8.2c0-0.2,0-0.8,0-0.8c0.1-1.5-0.3-3-1.1-4.3
						C123.3,201,121.6,200.2,119.9,200.3z M117.2,205.5c0-0.7,0.2-1.4,0.6-1.9c0.5-0.6,1.2-1,2.1-1c0.7,0,1.4,0.2,1.8,0.7
						c0.5,0.6,0.8,1.4,0.8,2.1L117.2,205.5L117.2,205.5z"/>
					<path id="Path_14" class="st4" d="M101.7,208.7L101.7,208.7v-3.4c0-0.8-0.1-1.7-0.4-2.5c-0.7-1.8-2.5-2.5-4.6-2.5
						c-2.7,0-4.9,1.2-5.1,4h2.8c0.1-1.1,0.9-1.7,2.2-1.7c1.7,0,2.1,0.8,2.1,1.9v0.8l-3.6,0.3c-2.3,0.2-4.1,1.5-4.1,3.8
						c0,2,1.5,3.8,4.4,3.8c1.5,0.1,2.9-0.6,3.7-1.8v1.7h3.5v-2.1h-1.1L101.7,208.7z M98.8,208c0,1.8-1.3,2.8-3.1,2.8
						c-0.9,0.1-1.7-0.6-1.7-1.5l0,0c0.1-0.9,0.8-1.6,1.8-1.6l3.1-0.2L98.8,208L98.8,208z"/>
				</g>
				<g id="Group_4">
					<path id="Path_15" class="st4" d="M67.4,191.8l-23.6,13.6L67.4,219v-3.6l-17.4-10l17.4-10L67.4,191.8z"/>
					<rect id="Rectangle_2" x="40.7" y="191.8" class="st4" width="3.1" height="27.2"/>
					<path id="Path_16" class="st4" d="M17.2,195.3l17.4,10l-17.4,10v3.7l23.5-13.6l-23.6-13.7V195.3z"/>
				</g>
			</g>
		</g>
	</g>
</g>
</svg>
