<svg xmlns="http://www.w3.org/2000/svg" width="130.663" height="128.058" viewBox="0 0 130.663 128.058"><defs><style>.a{fill:#d82e27;}.b{isolation:isolate;}.c{fill:#fff;}</style></defs><g transform="translate(-769.507 -240.571)"><g transform="translate(769.507 240.571)"><path class="a" d="M769.52,304.512c0-6.647.01-13.294-.013-19.941,0-.772.233-1.032,1.035-1.025,6.237.033,12.475.02,18.709.02,1.545,0,1.647-.136,1.647-1.668-.007-8.757.007-17.514-.01-26.271,0-.858.316-1.161,1.172-1.158,8.724.034,17.451.034,26.174.063.839,0,1.018-.443,1.015-1.128-.007-3.811,0-7.622-.013-11.433,0-1.378-.016-1.375,1.328-1.378,5.512,0,11.024-.047,16.536,0a64.512,64.512,0,0,1,31.594,8.973,59.284,59.284,0,0,1,14.132,11.4,67.606,67.606,0,0,1,10.664,15.371,64.833,64.833,0,0,1,5.588,16.758,63.194,63.194,0,0,1,.859,17.021,59.582,59.582,0,0,1-4.157,17.175A67.177,67.177,0,0,1,883.916,346.2a65.264,65.264,0,0,1-18.52,14.542,63.843,63.843,0,0,1-12.112,4.953,69.2,69.2,0,0,1-21.239,2.922c-3.9-.07-7.811-.04-11.715-.01-.823.007-1.115-.263-1.109-1.088.033-3.782.023-7.559.03-11.34,0-1.261-.143-1.4-1.414-1.4q-12.851,0-25.706-.007c-1.115,0-1.235-.126-1.235-1.248q.01-13.275.024-26.554c0-1.055-.25-1.281-1.488-1.284q-8.647,0-17.295.01c-2.623,0-2.613.007-2.61-2.663q.011-9.261,0-18.522C769.531,304.512,769.523,304.512,769.52,304.512Z" transform="translate(-769.507 -240.571)"/></g><g class="b" transform="translate(821.411 268.241)"><path class="c" d="M848.306,282.579h4.083a5.885,5.885,0,0,1,2.55.356,3.577,3.577,0,0,1,2.068,3.459,3.644,3.644,0,0,1-2.14,3.459v.036a3.1,3.1,0,0,1,.428.624l2.6,4.725h-2.568l-2.514-4.725h-2.211v4.725h-2.3Zm4.368,5.937a1.837,1.837,0,0,0,2-2c0-1.213-.517-1.962-2.318-1.962h-1.748v3.959Z" transform="translate(-848.306 -282.579)"/><path class="c" d="M866.555,282.579h2.461l2.478,6.258c.286.749.642,1.855.642,1.855h.036s.339-1.106.624-1.855l2.479-6.258h2.461l1.016,12.659h-2.282l-.535-7.078c-.053-.839-.018-1.962-.018-1.962h-.036s-.375,1.23-.678,1.962l-2.051,4.9h-2.015l-2.033-4.9c-.3-.731-.695-1.979-.695-1.979h-.036s.036,1.141-.018,1.979l-.535,7.078h-2.3Z" transform="translate(-854.182 -282.579)"/><path class="c" d="M889.881,282.579h2.3v12.659h-2.3Z" transform="translate(-862.496 -282.579)"/><path class="c" d="M900.071,284.558h-4.154v-1.979h10.609v1.979h-4.155v10.681h-2.3Z" transform="translate(-864.556 -282.579)"/></g><g class="b" transform="translate(798.48 287.664)"><path class="c" d="M813.492,312.065h4.529c2.282,0,3.9,1.176,3.9,3.263a2.994,2.994,0,0,1-1.533,2.71v.036a2.961,2.961,0,0,1,2.05,2.977c0,2.532-2.033,3.673-4.368,3.673h-4.583Zm4.529,5.17a1.511,1.511,0,0,0,1.569-1.622,1.461,1.461,0,0,0-1.6-1.569h-2.193v3.191Zm.232,5.509a1.827,1.827,0,1,0,0-3.654h-2.461v3.654Z" transform="translate(-813.492 -312.065)"/><path class="c" d="M830.139,312.065h2.247v9.485c0,1,.339,1.248.927,1.248.179,0,.339-.018.339-.018v1.979a5.121,5.121,0,0,1-.713.054c-1.248,0-2.8-.321-2.8-2.924Z" transform="translate(-819.174 -312.065)"/><path class="c" d="M841.979,317.153a4.767,4.767,0,1,1-4.992,4.761A4.786,4.786,0,0,1,841.979,317.153Zm.018,7.6a2.838,2.838,0,1,0-2.71-2.835A2.7,2.7,0,0,0,842,324.749Z" transform="translate(-821.511 -313.802)"/><path class="c" d="M858.87,317.153a4.628,4.628,0,0,1,3.494,1.355l-1,1.552a3.566,3.566,0,0,0-2.371-.982,2.7,2.7,0,0,0-2.764,2.818,2.768,2.768,0,0,0,2.835,2.853,4.183,4.183,0,0,0,2.674-1.159l.874,1.605a5.179,5.179,0,0,1-3.745,1.48,4.764,4.764,0,1,1,0-9.522Z" transform="translate(-827.294 -313.802)"/><path class="c" d="M869.684,312.065h2.265v6.775h1.123l2.193-3.21h2.514l-2.87,4.065v.036l3.228,4.992h-2.6l-2.407-3.976h-1.177v3.976h-2.265Z" transform="translate(-832.671 -312.065)"/><path class="c" d="M888.346,317.153a4.628,4.628,0,0,1,3.494,1.355l-1,1.552a3.566,3.566,0,0,0-2.371-.982,2.7,2.7,0,0,0-2.764,2.818,2.768,2.768,0,0,0,2.835,2.853,4.183,4.183,0,0,0,2.674-1.159l.873,1.605a5.177,5.177,0,0,1-3.744,1.48,4.764,4.764,0,1,1,0-9.522Z" transform="translate(-837.354 -313.802)"/><path class="c" d="M899.16,312.065h2.265v4.386c0,.445-.036.766-.036.766h.036a3.5,3.5,0,0,1,3.138-1.8c2.015,0,3.156,1.052,3.156,3.459v5.849h-2.246V319.34c0-1.106-.286-1.855-1.444-1.855a2.559,2.559,0,0,0-2.461,1.89,4.109,4.109,0,0,0-.142,1.177v4.172H899.16Z" transform="translate(-842.731 -312.065)"/><path class="c" d="M919.973,320.755h.3v-.125c0-1.195-.749-1.605-1.747-1.605a4.869,4.869,0,0,0-2.5.873l-.856-1.622a6.135,6.135,0,0,1,3.567-1.124c2.389,0,3.78,1.319,3.78,3.62v5.687h-2.086v-.748a5.772,5.772,0,0,1,.036-.642h-.036a2.943,2.943,0,0,1-2.764,1.605,2.858,2.858,0,0,1-3.085-2.836C914.588,320.951,918.493,320.755,919.973,320.755Zm-1.73,4.154a2.336,2.336,0,0,0,2.051-2.389v-.213H919.9c-1.159,0-3.031.16-3.031,1.426A1.213,1.213,0,0,0,918.243,324.909Z" transform="translate(-847.997 -313.802)"/><path class="c" d="M930.207,312.065h2.246v2.014h-2.246Zm0,3.566h2.264v9.093h-2.264Z" transform="translate(-853.328 -312.065)"/><path class="c" d="M937.433,317.367h2.175v1.052a5.673,5.673,0,0,1-.036.624h.036a3.528,3.528,0,0,1,3.228-1.89c2.015,0,3.156,1.052,3.156,3.459v5.849h-2.247v-5.384c0-1.106-.285-1.855-1.444-1.855a2.509,2.509,0,0,0-2.443,1.855,3.842,3.842,0,0,0-.16,1.212v4.172h-2.265Z" transform="translate(-855.794 -313.802)"/></g><g class="b" transform="translate(798.276 307.058)"><path class="c" d="M813.183,341.509h2.3v12.659h-2.3Z" transform="translate(-813.183 -341.509)"/><path class="c" d="M821.005,346.811h2.176v1.053a5.549,5.549,0,0,1-.036.624h.036a3.526,3.526,0,0,1,3.227-1.89c2.015,0,3.157,1.052,3.157,3.459v5.849h-2.247v-5.385c0-1.106-.284-1.855-1.444-1.855a2.509,2.509,0,0,0-2.442,1.855,3.824,3.824,0,0,0-.161,1.213v4.172h-2.265Z" transform="translate(-815.853 -343.246)"/><path class="c" d="M837.6,346.811h2.175v1.053a5.633,5.633,0,0,1-.036.624h.036A3.528,3.528,0,0,1,843,346.6c2.015,0,3.156,1.052,3.156,3.459v5.849h-2.247v-5.385c0-1.106-.285-1.855-1.444-1.855a2.511,2.511,0,0,0-2.443,1.855,3.844,3.844,0,0,0-.16,1.213v4.172H837.6Z" transform="translate(-821.516 -343.246)"/><path class="c" d="M858.153,346.6a4.766,4.766,0,1,1-4.992,4.76A4.786,4.786,0,0,1,858.153,346.6Zm.018,7.6a2.838,2.838,0,1,0-2.71-2.835A2.7,2.7,0,0,0,858.171,354.193Z" transform="translate(-826.828 -343.246)"/><path class="c" d="M869.211,346.922h2.39l1.89,5.635c.178.534.3,1.373.321,1.373h.036c.017,0,.142-.839.321-1.373l1.89-5.635h2.389l-3.262,9.094H872.51Z" transform="translate(-832.306 -343.357)"/><path class="c" d="M889.375,350.2h.3v-.125c0-1.194-.749-1.6-1.748-1.6a4.866,4.866,0,0,0-2.5.874l-.856-1.623a6.137,6.137,0,0,1,3.566-1.123c2.389,0,3.78,1.319,3.78,3.62v5.688h-2.086v-.749a5.791,5.791,0,0,1,.036-.642h-.036a2.943,2.943,0,0,1-2.764,1.605,2.858,2.858,0,0,1-3.085-2.836C883.99,350.4,887.9,350.2,889.375,350.2Zm-1.729,4.154a2.336,2.336,0,0,0,2.05-2.389v-.213H889.3c-1.159,0-3.031.16-3.031,1.426A1.213,1.213,0,0,0,887.646,354.353Z" transform="translate(-837.35 -343.246)"/><path class="c" d="M899.513,347.582h-1.177v-1.8h1.23V343.16h2.211v2.621h2.068v1.8h-2.068v3.531a1.615,1.615,0,0,0,1.8,1.711,2.131,2.131,0,0,0,.41-.035v1.978a3.869,3.869,0,0,1-.7.054c-1.266,0-3.78-.375-3.78-3.423Z" transform="translate(-842.246 -342.073)"/><path class="c" d="M909.732,341.509h2.247v2.015h-2.247Zm0,3.565H912v9.094h-2.264Z" transform="translate(-846.136 -341.509)"/><path class="c" d="M920.922,346.6a4.766,4.766,0,1,1-4.992,4.76A4.786,4.786,0,0,1,920.922,346.6Zm.018,7.6a2.838,2.838,0,1,0-2.71-2.835A2.7,2.7,0,0,0,920.94,354.193Z" transform="translate(-848.251 -343.246)"/><path class="c" d="M933.876,346.811h2.175v1.053a5.671,5.671,0,0,1-.035.624h.035a3.528,3.528,0,0,1,3.228-1.89c2.015,0,3.156,1.052,3.156,3.459v5.849h-2.246v-5.385c0-1.106-.286-1.855-1.445-1.855a2.51,2.51,0,0,0-2.443,1.855,3.847,3.847,0,0,0-.16,1.213v4.172h-2.265Z" transform="translate(-854.376 -343.246)"/></g><g class="b" transform="translate(826.06 327.478)"><path class="c" d="M855.363,372.51h2.3v5.366h5.794V372.51h2.3v12.659h-2.3v-5.314h-5.794v5.314h-2.3Z" transform="translate(-855.363 -372.51)"/><path class="c" d="M875.285,377.923h2.264v5.385c0,1.105.285,1.854,1.409,1.854,1.64,0,2.549-1.444,2.549-3.066v-4.173h2.265v9.094H881.6v-1.035a5.767,5.767,0,0,1,.036-.642H881.6a3.505,3.505,0,0,1-3.156,1.89c-1.944,0-3.156-.981-3.156-3.459Z" transform="translate(-862.163 -374.358)"/><path class="c" d="M891.958,372.51h2.265v3.9a7.579,7.579,0,0,1-.036.767h.036a3.2,3.2,0,0,1,2.728-1.319c2.461,0,4.03,1.943,4.03,4.76,0,2.888-1.765,4.761-4.172,4.761a3.208,3.208,0,0,1-2.71-1.356h-.036a5.259,5.259,0,0,1,.036.624v.517h-2.14Zm4.457,10.965c1.248,0,2.282-1.016,2.282-2.817,0-1.73-.927-2.853-2.265-2.853-1.177,0-2.282.856-2.282,2.871C894.151,382.085,894.9,383.475,896.415,383.475Z" transform="translate(-867.853 -372.51)"/></g></g></svg>